<svg width="142" height="22" viewBox="0 0 142 22" fill="none" xmlns="http://www.w3.org/2000/svg">
<g clip-path="url(#clip0_14_145)">
<path fill-rule="evenodd" clip-rule="evenodd" d="M5.1 17.79H11.69C15.2 17.79 17.69 17.24 19.15 16.15C20.61 15.06 21.35 13.25 21.35 10.74C21.35 8.5 20.74 6.8 19.53 5.65C18.31 4.5 16.52 3.92 14.14 3.92H5.1V17.79ZM0 21.91V0H14.1C18.12 0 21.21 0.94 23.38 2.82C25.54 4.7 26.62 7.37 26.62 10.82C26.62 12.87 26.2 14.71 25.36 16.34C24.52 17.98 23.33 19.27 21.79 20.21C20.84 20.8 19.65 21.23 18.24 21.51C16.82 21.78 15.01 21.91 12.8 21.91H0Z" fill="#FCFCFC"/>
<path fill-rule="evenodd" clip-rule="evenodd" d="M37.23 21.91V12.11L25.85 0H32.65L40.18 8.42L47.72 0H53.71L42.37 11.98V21.91H37.23Z" fill="#FCFCFC"/>
<path fill-rule="evenodd" clip-rule="evenodd" d="M131.11 13.16L126.39 4.25L121.52 13.16L119.34 17.12L116.79 21.91H111.71L124.11 0H129.02L141.58 21.91H135.86L133.23 17.12L131.11 13.16Z" fill="#EA3237"/>
<path fill-rule="evenodd" clip-rule="evenodd" d="M103.88 8.54H90.22V3.87H109.01C108.89 2.57 108.53 1.63 107.89 1.06C107.11 0.35 105.69 0 103.63 0H91.19C89.06 0 87.63 0.37 86.88 1.1C86.13 1.83 85.76 3.19 85.76 5.18V7.6C85.76 9.59 86.13 10.95 86.88 11.68C87.63 12.41 89.06 12.78 91.19 12.78H104.85V17.78H84.92C85.04 19.19 85.39 20.21 86 20.8C86.75 21.53 88.2 21.9 90.34 21.9H103.88C106.02 21.9 107.47 21.53 108.22 20.8C108.97 20.07 109.35 18.71 109.35 16.72V13.71C109.35 11.72 108.97 10.36 108.22 9.63C107.47 8.9 106.02 8.53 103.88 8.53V8.54Z" fill="#FCFCFC"/>
<path fill-rule="evenodd" clip-rule="evenodd" d="M74 17.78H60.26V3.95H79.04C78.91 2.61 78.56 1.67 77.97 1.1C77.22 0.37 75.78 0 73.67 0H60.59C58.46 0 57.02 0.37 56.28 1.1C55.53 1.83 55.16 3.19 55.16 5.18V16.73C55.16 18.73 55.53 20.1 56.28 20.82C57.03 21.55 58.46 21.91 60.59 21.91H73.67C75.79 21.91 77.22 21.55 77.97 20.82C78.58 20.23 78.93 19.21 79.05 17.78H74Z" fill="#FCFCFC"/>
</g>
<defs>
<clipPath id="clip0_14_145">
<rect width="141.58" height="21.91" fill="white"/>
</clipPath>
</defs>
</svg>
