<svg width="139" height="77" viewBox="0 0 139 77" fill="none" xmlns="http://www.w3.org/2000/svg">
<path fill-rule="evenodd" clip-rule="evenodd" d="M0.970093 45.34C1.03009 45.4 1.1501 45.4 1.2101 45.4C2.1601 45.4 1.81009 43.14 2.34009 42.48C4.31009 39.98 8.2401 39.8 11.4601 39.8C15.9301 39.8 19.2101 41.17 22.7901 41.83C19.4501 44.04 14.6201 49.1 14.6201 54.29C14.6201 59.48 18.7301 59.7 19.9801 59.77C24.3001 60.03 29.8001 58.01 28.8101 55.65C27.8601 55.65 24.2201 59.05 19.9201 59.05C17.3001 59.05 16.1601 57.32 16.1601 55.12C16.1601 50.53 20.1501 45.29 24.3301 42.19C26.8301 42.84 29.3401 43.56 32.0201 43.56C35.0001 43.56 36.1901 42.61 36.1901 41.47C36.1901 39.92 34.2801 38.61 31.7201 38.61C28.5601 38.61 25.9401 39.74 23.5501 41.29C19.8001 40.57 16.2201 39.08 11.4501 39.08C7.58009 39.08 2.51009 39.56 0.78009 43.61C0.66009 43.97 0.600098 44.27 0.600098 44.56C0.600098 44.92 0.720098 45.22 0.960098 45.33L0.970093 45.34ZM31.3101 39.32C33.4601 39.32 35.4201 40.15 35.4201 41.53C35.4201 42.3 34.5301 42.78 32.2601 42.78C29.8201 42.78 27.4901 42.24 25.1101 41.65C27.0201 40.4 29.1001 39.56 31.3101 39.32ZM41.0901 47.9C35.9601 54.81 35.7801 56.24 35.7801 56.72C35.7801 57.2 36.0801 57.26 36.2601 57.26C37.2701 57.26 38.8101 55.53 39.2901 55.53C39.3501 55.53 39.5601 56.05 39.5601 56.11C39.5601 56.35 40.6101 55.35 40.6101 55.35C37.1501 58.33 36.1401 57.97 36.1401 58.03C34.8901 58.03 34.8301 56.72 34.8301 56.72C34.8301 56.06 34.8901 55.53 35.1901 54.63V54.69C33.8801 55.94 31.3201 57.49 31.3201 57.49C30.7201 57.85 30.3101 57.91 29.9501 57.91C28.8201 57.91 28.7601 56.84 28.7601 56.3C28.7601 54.21 30.9101 51.53 30.9101 51.53C34.2501 47.42 36.0401 47.12 36.0401 47.12C37.2301 46.58 38.4201 47.48 38.1301 49.15C38.7301 48.26 39.5001 46.95 40.8701 46.95C41.2301 46.95 41.2901 47.13 41.2901 47.31C41.2901 47.55 41.1701 47.85 41.1101 47.91L41.0901 47.9ZM31.9101 56.19C30.7801 56.91 30.2401 57.08 30.0601 57.02C29.8801 56.96 29.8801 56.72 29.8801 56.6C29.8801 54.87 32.3801 52.25 32.3801 52.25C33.1001 51.47 35.7801 48.38 36.7901 48.38C37.3901 48.38 37.4501 49.21 37.4501 49.75C37.4501 52.61 32.1501 56.01 31.9101 56.19ZM39.5401 56.07C40.3201 57.38 41.7501 58.04 43.1801 57.98C44.3701 57.92 45.3901 58.04 46.8801 56.43C47.0001 56.49 47.1801 56.49 47.3001 56.49C48.7301 56.49 48.4301 56.31 48.5001 55.62C48.5001 55.56 49.9801 55.18 49.9201 55.18C49.7401 55.18 48.2501 55.84 47.3601 55.78C48.9701 53.34 48.3701 47.14 46.9401 46.84C45.6901 46.6 46.1101 47.44 46.0501 47.5C43.9001 51.02 43.0101 51.85 42.2401 52.86C41.9401 52.74 41.5801 52.68 41.3501 52.68C40.1001 52.68 39.2001 53.75 39.2001 54.83C39.2001 55.31 39.3201 55.66 39.5601 56.08L39.5401 56.07ZM43.1801 52.91C44.3101 51.72 45.3901 50.11 46.4001 48.62C46.8801 48.68 47.1801 53.45 46.1001 55.3C45.0901 54.82 43.9501 53.93 42.8801 53.21C43.0001 53.15 43.0601 53.03 43.1801 52.91ZM42.3501 53.8C41.5801 54.57 40.7401 55.29 40.1401 55.71C40.6201 56.54 42.0501 57.2 43.2401 57.2C44.4301 57.2 45.1501 56.66 45.6201 55.95C44.4901 55.35 43.3001 54.46 42.3401 53.8H42.3501ZM41.6901 53.44C41.5701 53.44 41.5101 53.38 41.3901 53.38C40.7301 53.38 39.9601 54.21 39.9601 55.05C39.9601 55.17 39.9601 55.23 40.0201 55.35C40.4401 54.81 41.0901 54.1 41.6901 53.44ZM60.7601 47.9C55.6301 54.81 55.4601 56.24 55.4601 56.72C55.4601 57.2 55.7601 57.26 55.9401 57.26C56.9501 57.26 58.8901 55.25 59.3701 55.25C59.3701 55.19 59.4301 55.25 59.3701 55.25C59.3701 55.49 59.2201 56.24 59.2201 56.24C55.7601 59.22 55.8201 57.98 55.8201 58.04C54.5701 58.04 54.5101 56.73 54.5101 56.73C54.5101 56.07 54.5701 55.54 54.8701 54.64V54.7C53.5601 55.95 51.0001 57.5 51.0001 57.5C50.4001 57.86 49.9901 57.92 49.6301 57.92C48.5001 57.92 48.4401 56.85 48.4401 56.31C48.4401 54.22 50.5901 51.54 50.5901 51.54C53.9301 47.43 55.7201 47.13 55.7201 47.13C56.9101 46.59 58.1001 47.49 57.8101 49.16C58.4101 48.27 59.1801 46.96 60.5501 46.96C60.9101 46.96 60.9701 47.14 60.9701 47.32C60.9701 47.56 60.8501 47.86 60.7901 47.92L60.7601 47.9ZM51.5801 56.19C50.4501 56.91 49.9101 57.08 49.7301 57.02C49.5501 56.96 49.5501 56.72 49.5501 56.6C49.5501 54.87 52.0501 52.25 52.0501 52.25C52.7701 51.47 55.4501 48.38 56.4601 48.38C57.0601 48.38 57.1201 49.21 57.1201 49.75C57.1201 52.61 51.8201 56.01 51.5801 56.19ZM62.7301 59.89C61.5401 59.65 60.2901 59.47 59.0901 59.47C56.7101 59.47 52.5901 59.89 52.5901 62.87C52.5901 64.6 54.8001 65.49 55.9901 65.49C59.1501 65.49 61.5301 63.64 63.7401 60.84C68.2101 61.79 87.1401 62.85 90.6501 62.85C93.0401 62.85 99.1401 63.21 110.75 62.2C117.66 61.59 133.37 58.86 135.26 58.06C135.97 57.76 138.82 57.19 138.82 56.12C138.82 55.88 138.64 55.7 138.4 55.7C137.03 55.7 135.91 57.04 134.79 57.52C133 58.29 117.4 61 110.62 61.59C99.1501 62.58 93.1801 62.2 91.0001 62.2C87.5401 62.2 68.6201 61.02 64.1501 60.19C65.9401 57.63 68.6201 51.9 71.6001 47.91C71.6601 47.85 71.7801 47.55 71.7801 47.31C71.7801 47.13 71.7201 46.95 71.4801 46.95C69.9301 46.95 69.1601 48.32 68.6801 49.27V49.03C68.6801 48.44 68.5601 46.94 67.0701 46.94C66.8901 46.94 66.7101 47 66.4701 47.06C66.4701 47.06 64.6801 47.37 61.3401 51.5C61.3401 51.5 59.1901 54.19 59.1901 56.29C59.1901 57.01 59.3101 57.91 60.6201 57.91C60.9201 57.91 61.2801 57.79 61.8101 57.48C61.8101 57.48 64.3701 55.93 65.6801 54.67L65.7401 54.55C64.7301 56.59 63.7701 58.32 62.7001 59.87L62.7301 59.89ZM55.8801 64.72C54.8701 64.72 53.4401 64.18 53.4401 62.81C53.4401 60.66 56.9601 60.13 58.9201 60.13C60.0501 60.13 61.1301 60.37 62.2001 60.49C60.6501 62.7 58.5001 64.72 55.8801 64.72ZM62.3801 56.2C62.3801 56.2 66.4901 53.87 67.9201 50.12C67.9201 49.76 67.9801 48.45 67.3201 48.39C66.3101 48.39 63.6201 51.55 62.9101 52.26C62.9101 52.26 60.4101 54.88 60.4101 56.61C60.4101 56.73 60.4101 57.03 60.5901 57.03C60.8301 57.03 61.3101 56.85 62.3801 56.2ZM78.5901 48.09C78.5901 47.61 77.9301 47.79 77.6401 47.97C74.6001 49.64 72.0401 52.68 70.2501 55.72C69.3601 57.21 69.2401 57.93 68.8201 57.93C68.6401 57.93 68.5201 57.63 68.5201 57.16C68.5201 56.8 68.5201 56.27 68.8201 55.67C70.9101 51.2 72.9901 46.61 74.9601 46.97C75.1401 47.03 75.2601 47.09 75.2601 47.27C75.2601 47.99 73.8301 49.53 73.1701 50.55C74.3001 49.36 76.7501 46.97 78.3001 46.97C79.0201 46.97 79.5501 47.51 79.5501 48.7C79.5501 51.44 78.0001 52.1 77.7001 52.1C77.1601 52.1 77.2801 51.33 77.4001 51.03C77.5801 50.61 78.4101 49.36 78.5901 48.11V48.09ZM89.9101 47.91C84.7801 54.82 84.6101 56.25 84.6101 56.73C84.6101 57.21 84.9101 57.27 85.0901 57.27C86.1001 57.27 88.6601 54.88 88.4501 55.31C88.1201 55.99 88.1501 56.39 88.0701 56.48C87.1701 57.26 83.8001 59.82 83.6601 56.74C83.6601 56.08 83.7201 55.55 84.0201 54.65V54.71C82.7101 55.96 80.1501 57.51 80.1501 57.51C79.5501 57.87 79.1401 57.93 78.7801 57.93C77.6501 57.93 77.5901 56.86 77.5901 56.32C77.5901 54.23 79.7401 51.55 79.7401 51.55C83.0801 47.44 84.8701 47.14 84.8701 47.14C86.0601 46.6 87.2501 47.5 86.9601 49.17C87.5601 48.28 88.3301 46.97 89.7001 46.97C90.0601 46.97 90.1201 47.15 90.1201 47.33C90.1201 47.57 90.0001 47.87 89.9401 47.93L89.9101 47.91ZM80.7301 56.2C79.6001 56.92 79.0601 57.09 78.8801 57.03C78.7001 56.97 78.7001 56.73 78.7001 56.61C78.7001 54.88 81.2001 52.26 81.2001 52.26C81.9201 51.48 84.6001 48.39 85.6101 48.39C86.2101 48.39 86.2701 49.22 86.2701 49.76C86.2701 52.62 80.9701 56.02 80.7301 56.2ZM96.1701 57.27C96.7601 57.15 100.3 52.49 99.4501 56.13C98.3201 57.01 94.6701 60.01 94.6701 56.31C94.6701 54.34 96.1001 51.96 98.1901 48.8C98.5501 48.32 98.8501 47.91 98.7301 47.73C98.5501 47.73 98.3701 47.79 98.1901 47.85C94.7301 49.16 91.7501 52.44 89.7901 55.66C88.9501 57.03 88.7801 57.93 88.3001 57.93C88.1201 57.93 88.0001 57.63 88.0001 57.16C88.0001 56.74 88.0601 56.27 88.3001 55.67C90.0901 51.2 92.3501 46.97 94.4401 46.97C94.6801 46.97 94.7401 47.15 94.7401 47.33C94.7401 48.11 92.9501 50.13 92.1201 51.32C93.7901 49.53 95.7001 48.04 98.0201 47.09C100.05 46.61 100.4 47.45 100.4 48.22C100.4 48.52 100.34 48.76 100.28 48.82C95.8101 54.96 95.6901 56.21 95.6901 56.39C95.6901 57.22 95.9301 57.33 96.1701 57.28V57.27ZM116.97 39.51C117.21 39.69 117.33 39.99 117.33 40.23C117.33 40.77 116.97 41.3 116.97 41.3L112.74 46.49C106.54 54.72 106.36 56.32 106.36 56.74C106.36 57.22 106.66 57.26 106.84 57.28C107.8 57.38 110.26 54.85 110.8 54.85C110.92 54.85 110.77 54.82 110.77 54.88C110.77 55.12 110.64 55.83 110.64 55.83C108.73 57.44 107.44 58.12 106.72 58.06C105.47 57.95 105.41 56.75 105.41 56.75C105.41 56.27 105.47 55.68 105.71 54.9C104.7 55.79 102.25 57.94 100.7 57.94C99.5101 57.94 99.4501 56.93 99.4501 56.33C99.4501 53.47 103.92 47.87 106.72 47.15C108.03 46.73 108.75 47.69 108.87 49C111.97 44.35 116.14 39.76 116.14 39.76C116.38 39.52 116.56 39.46 116.74 39.46C116.86 39.46 116.98 39.52 116.98 39.52L116.97 39.51ZM108.15 50C107.2 51.43 103.92 55.42 102.61 56.2C101.48 56.97 100.94 57.09 100.7 57.09C100.46 57.09 100.52 56.85 100.52 56.67C100.52 54.29 104.75 50.11 106.6 49.04C108.03 48.2 108.15 48.86 108.15 49.99V50ZM118.88 53.64C119.24 53.1 119.95 52.45 120.19 52.57C120.37 52.69 119.89 53.58 119.47 54.12C118.34 55.43 117.62 55.97 116.19 56.8C114.88 57.51 111.42 59.3 110.71 56.8C110 54.12 113.87 48.39 116.43 47.2C117.32 46.72 118.52 46.72 118.93 47.86C120.36 51.85 115.23 53.88 112.61 55.13C112.37 55.19 112.19 55.25 111.95 55.31C111.71 55.97 111.65 56.56 111.77 57.04C112.13 57.81 114.69 56.8 115.82 56.09C117.43 55.08 117.79 54.72 118.86 53.65L118.88 53.64ZM116.79 48.87C117.39 48.39 118.04 48.04 118.22 48.39C118.94 51.25 115.12 53.22 112.38 54.35C113.39 52.26 115.06 50.06 116.79 48.87Z" fill="#154D82"/>
<path fill-rule="evenodd" clip-rule="evenodd" d="M88.6602 66.63C88.6602 66.83 88.6601 67.09 88.9601 67.15C89.1301 67.15 89.2401 66.91 89.2401 66.61C89.2401 66.42 89.1002 66.22 89.1002 65.98C89.5002 63.63 93.7301 66.5 95.9001 66.58C94.4701 68.1 93.4902 69.79 92.1402 71.27C91.7302 70.81 90.9601 69.92 90.3601 70.03C90.0601 70.07 89.8102 70.23 89.8102 70.7C89.8102 71.39 90.2501 72.2 91.1801 72.2C91.5601 72.2 91.9502 72.11 92.3102 71.9C92.9402 72.53 93.7602 73.2 95.0302 73.2C96.1002 73.2 97.5702 72.91 97.5402 72.87C97.8402 72.74 98.0302 72.5 98.0302 72.37C98.0302 72.26 97.9501 72.22 97.8401 72.22C96.8501 72.22 96.9202 72.96 95.1702 72.96C93.9602 72.96 93.2501 72.4 92.5901 71.72C92.8901 71.46 95.1102 68.66 96.7302 66.6C97.0902 66.56 98.1002 66.49 98.1002 65.71C98.1002 65.47 97.8302 65.15 97.4702 65.23C97.1702 65.29 96.3701 66.1 96.1501 66.32C93.2201 66.29 88.6602 62.98 88.6602 66.63ZM91.1902 71.89C90.6402 71.89 90.1501 71.33 90.1501 70.7C90.1501 70.46 90.2302 70.33 90.4502 70.27C90.7502 70.18 91.4601 71.01 91.9601 71.51C91.7701 71.71 91.5202 71.9 91.1902 71.9V71.89ZM97.3902 65.77C97.5002 65.62 97.6402 65.51 97.6602 65.53C97.7402 65.55 97.7701 65.66 97.7701 65.75C97.7701 66.07 97.3602 66.25 96.9702 66.31C97.1602 66.05 97.3002 65.85 97.3802 65.77H97.3902ZM102.27 68.48C99.9101 71 99.8301 71.52 99.8301 71.69C99.8301 71.86 99.9701 71.89 100.05 71.89C100.52 71.89 101.16 71.3 101.38 71.3C101.44 71.3 101 71.94 101 71.96C99.2302 72.88 99.3902 71.69 99.3902 71.69C99.3902 71.45 99.4201 71.26 99.5501 70.93V70.95C98.9501 71.4 97.7701 71.97 97.7701 71.97C97.5001 72.1 97.3002 72.12 97.1402 72.12C96.6202 72.12 96.5901 71.73 96.5901 71.53C96.5901 70.77 97.5801 69.79 97.5801 69.79C99.1201 68.29 99.9402 68.18 99.9402 68.18C100.49 67.98 101.04 68.31 100.9 68.92C101.17 68.59 101.53 68.12 102.16 68.12C102.32 68.12 102.35 68.18 102.35 68.25C102.35 68.34 102.29 68.45 102.27 68.47V68.48ZM98.0501 71.5C97.5301 71.76 97.2802 71.83 97.2002 71.8C97.1202 71.78 97.1201 71.69 97.1201 71.65C97.1201 71.02 98.2701 70.07 98.2701 70.07C98.6001 69.79 99.8301 68.66 100.3 68.66C100.57 68.66 100.6 68.96 100.6 69.16C100.6 70.2 98.1601 71.44 98.0501 71.5ZM104.03 68.16C103.65 68.01 99.6002 74.07 99.6002 75.92V76.05C99.6002 76.27 99.6602 76.68 100.26 76.68C100.31 76.68 100.7 76.66 100.7 76.55C100.7 76.49 100.67 76.36 100.54 76.36C100.46 76.36 100.46 76.4 100.29 76.4C100.18 76.4 100.1 76.36 100.1 76.1C100.21 75.21 102.17 71.43 103.08 70.19C103.38 69.73 104.86 68.73 105.85 68.73C107.65 69.77 103.58 71.85 102.84 71.5C102.17 71.18 103.4 73.48 106.98 71.2C106.98 71.2 106.63 71.5 106.63 71.41C106.63 71.39 106.81 70.88 106.77 70.92C106.63 71.08 105.22 71.75 104.33 71.95C103.47 72.14 103.01 71.8 103.33 71.76C106.16 71.41 108.58 68.83 105.63 68.32C105.16 68.38 104.32 68.68 103.94 69.12C104.24 68.69 104.27 68.73 104.24 68.51C104.21 68.38 104.18 68.25 104.05 68.16H104.03ZM109.93 67.96C107.08 70.98 107.02 71.54 107.02 71.71C107.02 71.86 107.13 71.88 107.24 71.88C107.73 71.88 108.89 71.14 108.89 71.1C108.92 71.08 108.84 71.18 108.84 71.24C108.87 71.37 108.8 71.49 108.8 71.49C107.29 72.53 107.24 72.16 107.18 72.16C106.52 72.18 106.58 71.68 106.58 71.68C106.58 70.01 111.35 65.5 111.52 65.5C111.63 65.41 111.71 65.39 111.77 65.39C111.96 65.39 112.02 65.61 112.02 65.69C112.02 65.89 111.88 66.06 111.88 66.06L109.93 67.95V67.96ZM114.48 68.48C114.48 68.48 114.56 68.35 114.56 68.26C114.56 68.19 114.53 68.13 114.37 68.13C113.74 68.13 113.38 68.61 113.11 68.93C113.25 68.32 112.7 68 112.15 68.19C112.15 68.19 111.33 68.3 109.79 69.8C109.79 69.8 108.8 70.78 108.8 71.54C108.8 71.74 108.83 72.13 109.35 72.13C109.51 72.13 109.71 72.11 109.98 71.98C109.98 71.98 111.16 71.41 111.76 70.96V70.94C111.62 71.27 111.6 71.46 111.6 71.7C111.6 71.7 111.63 72.18 112.2 72.18C112.2 72.16 112.27 72.55 113.86 71.46C113.86 71.46 113.84 71.46 113.84 71.37C113.84 71.35 113.91 71.12 113.88 71.12C113.66 71.12 112.72 71.89 112.25 71.89C112.17 71.89 112.03 71.87 112.03 71.69C112.03 71.51 112.11 71 114.47 68.48H114.48ZM110.26 71.5C110.37 71.43 112.81 70.2 112.81 69.16C112.81 68.97 112.78 68.66 112.51 68.66C112.04 68.66 110.81 69.79 110.48 70.07C110.48 70.07 109.33 71.02 109.33 71.65C109.33 71.69 109.33 71.78 109.41 71.8C109.49 71.82 109.74 71.76 110.26 71.5ZM116.87 68.2C117.01 68.16 117.12 68.14 117.2 68.14C117.72 68.14 117.94 68.53 117.8 69.14C117.61 69.94 117 69.92 117 69.92C116.89 69.9 116.92 69.7 116.92 69.66C116.92 69.49 117.44 69.12 117.44 68.73C117.28 68.73 117.08 68.77 116.84 68.9C116.21 69.23 114.34 70.83 114.34 71.57C114.34 71.79 114.59 71.88 114.81 71.85C116.52 71.6 117.52 70.48 117.95 70.36C117.98 70.34 117.75 70.75 117.74 70.77C117.31 71.62 116.21 72.05 114.84 72.16C114.04 72.18 113.85 71.81 113.85 71.38C113.85 70.42 115.82 68.49 116.87 68.21V68.2ZM121.37 70.56C120.88 70.95 120.71 71.08 119.97 71.45C119.45 71.71 118.27 72.08 118.1 71.8C118.05 71.63 118.07 71.41 118.18 71.17C118.29 71.15 118.37 71.13 118.48 71.1C119.69 70.64 122.05 69.91 121.39 68.45C121.2 68.04 120.65 68.04 120.24 68.21C119.06 68.64 117.28 70.73 117.61 71.7C117.94 72.61 119.53 71.96 120.13 71.7C120.79 71.4 121.12 71.2 121.64 70.72C121.83 70.52 122.05 70.2 121.97 70.16C121.86 70.12 121.53 70.35 121.37 70.55V70.56ZM120.41 68.82C120.68 68.65 120.99 68.52 121.07 68.65C121.4 69.69 119.64 70.41 118.38 70.82C118.85 70.06 119.61 69.26 120.41 68.82Z" fill="#154D82"/>
<path d="M49.4399 9.28997C49.4399 9.28997 49.4399 9.28997 49.3799 9.28997C49.1699 9.28997 48.8799 9.38997 49.3599 9.25997C49.3699 9.25997 49.4199 9.23997 49.4299 9.23997L50.9599 8.81997C55.3599 7.64997 59.8099 6.64997 64.2599 5.73997C66.4899 5.28997 68.7199 4.85997 70.9699 4.45997L74.3399 3.88997L75.3899 3.72997C75.3899 3.72997 76.8399 3.55997 77.8499 3.40997C79.5599 3.13997 78.8699 3.19997 77.8299 3.49997C77.6899 3.53997 75.3599 4.18997 75.3599 4.18997L74.0599 4.51997L70.7899 5.29997C68.6099 5.79997 66.4199 6.27997 64.2299 6.72997C59.8499 7.62997 55.4499 8.44997 51.0099 9.08997L49.4399 9.29997V9.28997Z" fill="#154D82"/>
<path d="M49.3203 9.15002C49.3203 9.15002 49.3103 9.15002 49.2803 9.17002C49.1403 9.25002 48.9603 9.38002 49.2703 9.17002C49.2703 9.17002 49.3103 9.14002 49.3203 9.14002L49.7903 8.82002L49.9103 8.74002C49.9603 8.70002 49.9803 8.69002 49.9703 8.70002L49.7503 8.62002L47.2503 7.69002L46.5103 7.41002C46.4003 7.37002 46.2003 7.29002 46.2603 7.32002L45.9303 7.54002C45.5003 7.84002 45.0903 8.16002 44.7103 8.52002C44.5203 8.70002 44.3503 8.89002 44.1803 9.09002C44.0403 9.25002 43.8103 9.61002 43.8703 9.52002C43.8703 9.52002 43.8603 9.52002 43.8903 9.52002L44.2903 9.55002L44.9303 9.60002C45.1703 9.64002 45.6903 9.57002 45.2503 9.83002C45.1403 9.92002 45.0203 10.02 44.9303 10.11C44.8403 10.2 44.7203 10.32 44.7003 10.35C44.6203 10.44 44.5303 10.54 44.4503 10.64C44.3703 10.74 44.3003 10.84 44.2303 10.95L44.1303 11.11C44.1303 11.11 44.1303 11.08 44.1303 11.16V11.93H44.1403H44.4603L45.2203 11.96H45.4103H45.5103H45.5603H45.5803C45.5403 11.47 45.6403 12.63 45.6203 12.51C45.5103 12.54 45.3903 12.57 45.2803 12.61C45.0503 12.69 44.8303 12.79 44.6303 12.9C44.5303 12.96 44.4303 13.02 44.3403 13.09L44.2103 13.19L44.1903 13.21V13.87V14.04C44.1903 14.04 44.1603 14.04 44.2203 14.04L45.7403 14.16L45.9703 14.18H46.0303H46.0603H46.0703C46.0903 14.46 46.0203 13.54 46.1203 14.82L46.0203 14.85L45.6003 14.98C45.3203 15.08 45.0503 15.19 44.8003 15.32C44.5603 15.43 44.2903 15.64 44.2103 15.75C44.2103 15.76 44.2103 15.71 44.2103 15.79V16.02V16.25V16.36L44.6003 16.38L45.5103 16.44L45.9703 16.47H46.2003L46.2603 16.49H46.2703C46.4203 16.65 45.9403 16.14 46.6003 16.84V17.14C46.7403 17.54 46.2603 17.48 46.0303 17.56L45.6003 17.67C45.2903 17.76 44.9803 17.86 44.7003 17.99C44.5603 18.06 44.4303 18.13 44.3203 18.21L44.2903 18.23V18.82H45.1403H46.4503C46.4503 18.82 46.5403 18.82 46.5703 18.83V19.03V19.4V19.91C46.5903 19.97 46.5403 19.97 46.4903 19.97L46.3603 19.99L46.1103 20.03L45.8003 20.08C45.4703 20.14 45.1503 20.21 44.8403 20.29C44.5503 20.36 44.1403 20.55 44.2603 20.5C44.2603 20.5 44.2603 20.48 44.2603 20.52V20.63V20.84C44.2603 21.36 44.2303 21.2 44.2803 21.22H45.3803H46.0003C46.1703 21.22 46.3803 21.2 46.5203 21.24V21.78V22.28C46.5003 22.36 46.5503 22.49 46.4803 22.52L46.2003 22.55L45.5303 22.63C45.1703 22.68 44.8103 22.73 44.4603 22.8L44.1803 22.86C44.1803 22.86 44.1803 22.82 44.1803 22.9V23.17V23.71H45.2303L45.8003 23.73H46.2803H46.4203V23.87V24.15V24.91C46.4003 24.99 46.4303 25.12 46.3803 25.17H46.1003L45.7103 25.19L44.5703 25.21H44.0703C44.0703 25.21 44.0703 25.12 44.0703 25.4V26.25L45.0703 26.27H45.6403L45.9403 26.28H46.2203C46.2903 26.27 46.2603 26.34 46.2703 26.38V26.52V27.15V27.51V27.65C46.2503 27.68 46.1903 27.66 46.1503 27.67H45.9103L44.6003 27.64H43.9803V27.63V27.77L43.9703 28.1L43.9503 28.76C43.9503 28.76 43.9503 28.77 43.9503 28.79C43.9503 28.79 43.9503 28.79 44.0003 28.79H44.2303C44.2303 28.79 45.2903 28.87 46.0803 28.91C46.1603 28.91 46.2603 28.91 46.2303 29.01C46.2303 29.08 46.2303 29.14 46.2303 29.19C46.2303 29.29 46.2303 29.37 46.2303 29.44C46.2303 29.56 46.2303 29.59 46.2303 29.56C46.2303 29.49 46.2303 29.4 46.2303 29.29C46.2303 29.22 46.2303 29.14 46.2303 29.05C46.2303 29.02 46.2303 28.93 46.2203 28.94H46.0703C45.9803 28.94 44.1503 28.94 44.1503 28.94H43.9203H43.8203C43.7903 28.94 43.8103 28.88 43.8003 28.85V28.71L43.7803 27.84C43.7803 27.72 43.7803 27.7 43.7803 27.46C43.7803 27.36 43.9503 27.43 44.0103 27.4H44.1603L44.7503 27.38L45.9303 27.36C46.0203 27.56 45.9503 26.84 45.9603 26.64H45.6903H45.1203L43.8503 26.67H43.7103C43.6503 26.67 43.6903 26.59 43.6803 26.55V26.27V25.97V25.4L43.6703 25.01C43.6903 24.93 43.6403 24.79 43.7103 24.76H43.9903L44.6303 24.72L45.7703 24.67C46.0503 24.66 45.9203 24.67 45.9503 24.67C45.9503 24.67 45.9503 24.69 45.9503 24.65V24.51V24.37C45.9503 24.31 45.9503 24.28 45.9503 24.29C45.9503 24.29 46.0103 24.29 45.8703 24.29H45.3003L44.1603 24.31C43.9903 24.3 43.7703 24.34 43.6503 24.27V23.73V23.17V22.9V22.39C43.7903 22.32 44.0103 22.28 44.1403 22.24L44.4203 22.18C44.7903 22.1 45.1503 22.04 45.5203 21.99L45.9403 21.93C45.9403 21.93 45.9403 21.98 45.9403 21.88H45.4603H44.3603C43.3603 22.23 43.7003 20.95 43.6403 20.82V20.3C43.6503 20.22 43.6203 20.12 43.6703 20.06L43.8803 19.93C44.0503 19.83 44.1103 19.81 44.2003 19.77C44.3803 19.7 44.5503 19.64 44.7203 19.59C45.0603 19.49 45.4003 19.42 45.7503 19.36C45.9903 19.32 45.9403 19.33 45.9403 19.33V19.52H45.7203H45.2103H44.0303H43.7803H43.6503V19.39V18.88V17.95C43.6803 17.81 43.9003 17.69 43.9703 17.62C44.1403 17.5 44.3003 17.42 44.4703 17.33C44.8103 17.18 45.1403 17.07 45.4803 16.97L45.9403 16.86C45.9803 16.85 45.9503 16.86 45.9603 16.84C46.6203 17.53 46.1403 17.02 46.2903 17.18H46.2803H46.2203L45.9903 17.16L45.5303 17.13L44.6203 17.07L44.0903 17.03L43.6303 17C43.5503 16.92 43.6003 16.72 43.5903 16.58V16.01V15.78C43.6003 15.71 43.5403 15.48 43.6803 15.39C43.9803 15.01 44.2403 14.89 44.5403 14.72C44.8303 14.57 45.1303 14.45 45.4303 14.35L45.8903 14.21L46.0103 14.18C46.1103 15.46 46.0403 14.53 46.0603 14.82H46.0503H46.0203H45.9603L45.7303 14.8L44.2103 14.65L43.8603 14.62L43.6703 14.6H43.6203V14.55V14.46V13.87V13C43.6503 12.89 43.7803 12.83 43.8603 12.75L44.0303 12.62C44.1503 12.54 44.2603 12.46 44.3803 12.4C44.6203 12.27 44.8703 12.16 45.1303 12.08C45.2603 12.04 45.3903 12 45.5303 11.97H45.5403C45.5403 11.85 45.6203 13.01 45.5803 12.52H45.5603H45.5103H45.4103H45.2203L44.4603 12.47L43.9903 12.45H43.7903C43.7403 12.43 43.6303 12.47 43.6503 12.37C43.6503 12.24 43.6503 12.11 43.6503 11.98V11.16L43.6603 11C43.6703 10.94 43.7303 10.87 43.7503 10.84L43.8703 10.67C43.9503 10.56 44.0403 10.45 44.1203 10.34C44.2103 10.23 44.3003 10.13 44.4003 10.03L44.4503 9.98002L44.2903 9.96002L43.8903 9.92002L43.5203 9.88002L43.3303 9.86002H43.2803L43.3003 9.81002L43.3503 9.73002C43.6403 9.17002 43.7403 9.10002 43.9403 8.85002C44.1203 8.64002 44.3103 8.45002 44.5203 8.27002C44.9303 7.91002 45.3603 7.59002 45.8203 7.31002L46.1703 7.10002C46.2803 6.98002 46.4303 7.12002 46.4603 7.11002L46.6403 7.19002L47.3703 7.50002L49.8203 8.55002L50.1203 8.68002C50.0103 8.80002 49.9403 8.80002 49.8603 8.86002L49.3703 9.15002H49.3203Z" fill="#154D82"/>
<path d="M81.8603 2.8C81.8603 2.8 81.8603 2.8 81.9003 2.85C82.0303 3.03 82.3003 3.17 81.8703 2.91C81.8603 2.91 81.8103 2.88 81.8003 2.87C81.3403 2.6 80.9003 2.31 80.4603 2.02L80.1503 1.82C80.0503 1.75 79.9803 1.71 79.7203 1.52L79.4003 1.28C79.3203 1.21 79.2703 1.15 79.2103 1.08L79.0303 0.88C79.0303 0.88 78.9103 0.8 79.0003 0.8L79.1503 0.77C79.3403 0.73 79.5503 0.69 79.7803 0.66C80.0003 0.63 80.2603 0.56 80.3403 0.55L81.0703 0.44C82.0403 0.3 83.0103 0.2 83.9903 0.12C84.9703 0.05 85.9503 0.01 86.9303 0C87.4203 0 87.9103 0 88.4003 0.02L89.3603 0.06C89.3603 0.06 89.7003 0.1 90.2203 0.16C90.6603 0.22 91.2403 0.3 91.8403 0.38C92.7003 0.5 92.9603 0.49 92.8703 0.49C92.7803 0.49 92.3403 0.49 91.8003 0.53C91.8603 0.53 91.2103 0.56 90.5603 0.62C89.9003 0.68 89.2403 0.74 89.2403 0.74L83.9603 1.06L81.1103 1.24L80.3003 1.29C80.3003 1.29 80.2303 1.29 80.3003 1.28C80.2903 1.24 80.4103 1.36 80.4903 1.44L80.7503 1.69C81.1303 2.06 81.5103 2.43 81.8803 2.81L81.8603 2.8Z" fill="#154D82"/>
<path d="M92.91 0.879999C92.91 0.879999 92.91 0.879999 92.95 0.829999C93.09 0.669999 93.24 0.409999 92.98 0.829999C92.98 0.839999 92.95 0.879999 92.94 0.889999L92.1 2.23L91.92 2.52L91.84 2.65H91.92H92.26H92.94C93.01 2.69 93.48 2.56 93.36 2.87V3.28L93.39 3.96V4.37C93.43 4.48 93.24 4.57 93.23 4.6L93.11 4.72L92.63 5.2C92.57 5.26 92.42 5.41 92.46 5.37C92.46 5.38 92.46 5.34 92.46 5.4V5.57L92.5 6.73L93.15 6.48C93.24 6.42 93.41 6.5 93.44 6.49L93.61 6.52L93.95 6.58L94.62 6.7L96.62 7.06C97.1 7.14 97.46 7.24 97.87 7.32L98.47 7.45C98.47 7.45 98.59 7.47 98.6 7.48L98.45 7.53L98.15 7.62L95.54 8.4L95.46 8.42C95.46 8.42 95.5 8.41 95.51 8.4L95.68 8.35L95.85 8.3C95.91 8.28 95.87 8.3 95.88 8.3H95.89C95.89 8.3 95.92 8.3 95.91 8.3C95.93 8.3 95.86 8.3 95.95 8.31L96.86 8.48L97.03 8.51C97.03 8.51 97.17 8.51 97.14 8.59V8.93V9.46V10.14V12.87C97.14 16.51 97.1 20.16 97.02 23.8L96.87 29.27L96.83 30.44C96.83 30.44 96.76 31.83 96.7 32.91C96.65 34.64 96.7 33.95 96.64 32.88C96.64 32.75 96.51 30.32 96.51 30.32L96.45 28.63L96.31 23.26C96.24 19.68 96.2 16.09 96.2 12.51V9.82V9.48V9.31C96.2 9.31 96.2 9.31 96.2 9.3C96.18 9.3 96.26 9.31 96.14 9.29L93.93 8.85L92.67 8.59L92.36 8.53C92.29 8.51 92.04 8.49 92.24 8.46L92.84 8.28L94.17 7.88L95.52 7.5C95.52 7.5 95.67 7.46 95.64 7.47L95.44 7.52C95.31 7.55 95.12 7.6 95.18 7.59H95.2C95.2 7.59 95.25 7.59 95.22 7.59C95.39 7.64 94.73 7.5 94.33 7.41L93.67 7.27L93.34 7.2C93.18 7.18 93.37 7.17 93.21 7.2L92.41 7.48L92.1 7.58C92.01 7.59 91.85 7.72 91.89 7.55C91.89 7.33 91.87 7.13 91.87 6.9L91.9 5.47C91.92 5.41 91.84 5.09 92.07 4.98L92.33 4.75L92.83 4.3L92.93 4.21L92.94 3.88L92.96 3.21C92.96 3.11 92.96 2.94 92.96 2.99C92.94 2.99 93.04 2.99 92.87 2.99L92.2 2.94L91.87 2.91L91.61 2.89L91.46 2.87C91.38 2.87 91.41 2.84 91.44 2.79C91.48 2.71 91.55 2.62 91.62 2.52L91.73 2.38L91.93 2.11L92.9 0.859999L92.91 0.879999Z" fill="#154D82"/>
<path d="M79.3201 8.98C79.3201 8.98 79.3201 8.98 79.3801 8.98C79.5901 8.98 79.8901 8.91 79.4001 9.01C79.3901 9.01 79.3401 9.02 79.3301 9.03L77.7801 9.35C73.1401 10.26 68.4801 10.99 63.8101 11.64C61.4701 11.96 59.1301 12.26 56.7901 12.52L53.2701 12.89L52.2101 12.99C52.2101 12.99 50.7601 13.07 49.7401 13.16C48.0201 13.32 48.7101 13.3 49.7601 13.07C49.9001 13.04 52.2701 12.55 52.2701 12.55L53.6101 12.3L57.0401 11.71C59.3301 11.33 61.6201 10.99 63.9201 10.67C68.5101 10.03 73.1201 9.48 77.7501 9.1L79.3301 8.99L79.3201 8.98Z" fill="#154D82"/>
<path d="M79.2802 12.38C79.2802 12.38 79.2802 12.38 79.3402 12.38C79.5502 12.38 79.8502 12.32 79.3602 12.42C79.3502 12.42 79.3002 12.43 79.2902 12.44L77.7302 12.72C73.1102 13.51 68.4702 14.11 63.8202 14.63C61.4902 14.89 59.1702 15.12 56.8402 15.32L53.3402 15.59L52.2702 15.66C52.2702 15.66 50.8102 15.7 49.8002 15.76C48.0802 15.88 48.7702 15.88 49.8202 15.67C49.9702 15.64 52.3402 15.21 52.3402 15.21L53.6802 15L57.1002 14.5C59.3802 14.19 61.6602 13.9 63.9502 13.65C68.5202 13.14 73.1002 12.71 77.7002 12.45L79.2802 12.38Z" fill="#154D82"/>
<path d="M79.32 15.71H79.38C79.59 15.72 79.89 15.67 79.4 15.75C79.39 15.75 79.34 15.76 79.33 15.76L77.76 16C73.16 16.67 68.54 17.16 63.92 17.57C61.61 17.77 59.29 17.95 56.98 18.09L53.5 18.28L52.43 18.32C52.43 18.32 50.97 18.32 49.95 18.36C48.22 18.44 48.92 18.45 49.98 18.27C50.13 18.25 52.52 17.87 52.52 17.87L53.86 17.69L57.26 17.28C59.53 17.02 61.8 16.8 64.07 16.59C68.62 16.19 73.17 15.87 77.74 15.73L79.33 15.7L79.32 15.71Z" fill="#154D82"/>
<path d="M79.3803 19.05C79.3803 19.05 79.3803 19.05 79.4403 19.05C79.6503 19.07 79.9503 19.02 79.4503 19.09C79.4403 19.09 79.3903 19.1 79.3803 19.1L77.8103 19.3C73.2003 19.84 68.5803 20.2 63.9603 20.48C61.6503 20.62 59.3403 20.73 57.0203 20.81L53.5503 20.9H52.4803C52.4803 20.9 51.0203 20.88 50.0003 20.89C48.2703 20.92 48.9703 20.95 50.0303 20.8C50.1803 20.78 52.5803 20.47 52.5803 20.47L53.9203 20.33L57.3203 20.01C59.5903 19.82 61.8603 19.65 64.1303 19.52C68.6803 19.25 73.2303 19.06 77.7903 19.04H79.3803V19.05Z" fill="#154D82"/>
<path d="M79.4002 22.41C79.4002 22.41 79.4002 22.41 79.4602 22.41C79.6702 22.45 79.9702 22.4 79.4702 22.47C79.4602 22.47 79.4002 22.48 79.4002 22.48C78.8802 22.56 78.3502 22.62 77.8202 22.68C75.1902 22.97 72.5602 23.13 69.9302 23.22C68.6102 23.26 67.3002 23.29 65.9802 23.29H64.0002L63.0102 23.26C63.0102 23.26 61.5502 23.14 60.5302 23.1C59.6602 23.06 59.4102 23.08 59.5002 23.08C59.5902 23.08 60.0302 23.04 60.5602 22.98C60.7402 22.96 63.1102 22.67 63.1102 22.67L64.2002 22.58L66.1402 22.45C67.4302 22.37 68.7302 22.32 70.0202 22.28C72.6102 22.21 75.2002 22.2 77.8002 22.32C78.3302 22.34 78.8602 22.37 79.3902 22.42L79.4002 22.41Z" fill="#154D82"/>
<path d="M79.3901 25.76C79.3901 25.76 79.3901 25.76 79.4501 25.76C79.6601 25.81 79.9601 25.76 79.4601 25.82C79.4501 25.82 79.3901 25.83 79.3901 25.83C78.8601 25.9 78.3401 25.95 77.8101 25.99C75.1901 26.22 72.5701 26.32 69.9601 26.35C68.6501 26.37 67.3401 26.36 66.0301 26.34L64.0601 26.28L63.0701 26.24C63.0701 26.24 61.6201 26.09 60.6001 26.02C59.7401 25.96 59.4801 25.98 59.5701 25.98C59.6601 25.98 60.1001 25.95 60.6301 25.9C60.8101 25.88 63.1901 25.64 63.1901 25.64L64.2801 25.57L66.2101 25.48C67.5001 25.43 68.7801 25.41 70.0701 25.4C72.6501 25.39 75.2201 25.44 77.8001 25.62C78.3301 25.65 78.8601 25.7 79.3801 25.75L79.3901 25.76Z" fill="#154D82"/>
<path d="M79.27 5.45C79.27 5.45 79.28 5.45 79.33 5.45C79.54 5.44 79.84 5.37 79.35 5.47C79.34 5.47 79.29 5.48 79.28 5.49L77.73 5.81C69.41 7.49 61.06 8.93 52.69 10.28L49.55 10.78L49.16 10.84C49.05 10.86 48.83 10.89 48.89 10.88C48.89 10.85 48.89 10.99 48.89 11.03V12.62L48.78 18.98L48.62 25.34L48.58 26.56C48.58 26.56 48.51 27.96 48.46 29.03C48.41 30.76 48.46 30.07 48.41 29C48.41 28.87 48.29 26.44 48.29 26.44L48.23 24.6L48.08 18.35L47.99 12.1V10.17C47.94 10.08 48.06 10.11 48.11 10.09L48.31 10.06L48.7 10L49.1 9.93L49.87 9.8L52.95 9.29C61.18 7.95 69.42 6.69 77.69 5.66L79.26 5.47L79.27 5.45Z" fill="#154D82"/>
<path d="M52.2102 10.62C52.2102 10.62 52.2102 10.62 52.2102 10.58C52.2302 10.46 52.2102 10.28 52.2302 10.58V10.62L52.2902 11.56C52.4502 14.59 52.5002 17.62 52.5002 20.64C52.5002 22.15 52.4802 23.67 52.4402 25.18L52.3402 28.09C52.3402 28.09 52.2902 28.83 52.2402 29.55C52.2002 30.57 52.2402 30.16 52.1902 29.53C52.1902 29.42 52.0902 28.02 52.0902 28.02L52.0502 27.19L51.9802 24.96C51.9402 23.47 51.9302 21.98 51.9302 20.49C51.9302 17.51 51.9802 14.54 52.1402 11.56L52.2002 10.62H52.2102Z" fill="#154D82"/>
<path d="M56.83 9.78999C56.83 9.78999 56.83 9.78999 56.83 9.74999C56.86 9.62999 56.8301 9.44999 56.8701 9.74999V9.78999C56.9101 10.1 56.9301 10.41 56.9601 10.73C57.0801 12.06 57.1201 13.38 57.1201 14.71C57.1201 15.37 57.1201 16.04 57.1001 16.7L57.0301 18.27C57.0301 18.27 56.9601 18.93 56.8801 19.73C56.8101 20.75 56.88 20.34 56.8 19.71C56.79 19.57 56.6501 18.2 56.6501 18.2L56.58 16.6C56.56 15.95 56.5601 15.3 56.5601 14.64C56.5601 13.34 56.6101 12.03 56.7201 10.73C56.7501 10.42 56.7701 10.11 56.8101 9.78999H56.83Z" fill="#154D82"/>
<path d="M70.55 7.14003C70.55 7.14003 70.55 7.14003 70.55 7.10003C70.59 6.98003 70.55 6.80003 70.59 7.10003V7.14003C70.63 7.45003 70.66 7.76003 70.69 8.08003C70.86 9.99003 70.88 11.91 70.79 13.82L70.76 14.34C70.76 14.34 70.69 14.99 70.6 15.8C70.53 16.82 70.6 16.41 70.51 15.78C70.5 15.64 70.35 14.27 70.35 14.27L70.32 13.68L70.29 12.88C70.28 12.35 70.27 11.81 70.28 11.28C70.28 10.21 70.33 9.15003 70.43 8.08003C70.46 7.77003 70.49 7.46003 70.53 7.14003H70.55Z" fill="#154D82"/>
<path d="M67.5603 7.59999C67.5603 7.59999 67.5603 7.59999 67.5603 7.55999C67.6003 7.43999 67.5603 7.25999 67.6003 7.55999V7.59999C67.6403 7.90999 67.6703 8.21999 67.7103 8.53999C67.8703 10.39 67.8903 12.24 67.8103 14.09L67.7803 14.61C67.7803 14.61 67.7103 15.26 67.6103 16.07C67.5303 17.09 67.6103 16.68 67.5203 16.05C67.5003 15.91 67.3603 14.54 67.3603 14.54L67.3303 13.96L67.3003 13.19C67.2903 12.67 67.2803 12.16 67.2903 11.64C67.3003 10.61 67.3403 9.57999 67.4403 8.53999C67.4803 8.22999 67.5003 7.91999 67.5503 7.59999H67.5603Z" fill="#154D82"/>
<path d="M61.6899 9.03999C61.6899 9.03999 61.6899 9.03999 61.6899 8.99999C61.7299 8.87999 61.6898 8.69999 61.7398 8.99999V9.03999C61.7798 9.34999 61.8199 9.65999 61.8499 9.97999C61.9899 11.51 62.0199 13.05 61.9499 14.58L61.9199 15.1C61.9199 15.1 61.8398 15.74 61.7398 16.56C61.6598 17.58 61.7399 17.17 61.6399 16.54C61.6199 16.39 61.4699 15.03 61.4699 15.03L61.4499 14.58C61.3899 13.05 61.4098 11.51 61.5498 9.97999C61.5798 9.66999 61.6199 9.35999 61.6599 9.03999H61.6899Z" fill="#154D82"/>
<path d="M61.9502 17.53C61.9502 17.53 61.9502 17.53 61.9502 17.49C61.9802 17.37 61.9502 17.19 61.9902 17.49V17.53C62.0302 17.84 62.0502 18.15 62.0802 18.47C62.2002 19.8 62.2402 21.13 62.2402 22.45C62.2402 23.11 62.2402 23.78 62.2202 24.44L62.1502 26.01C62.1502 26.01 62.0802 26.67 62.0002 27.47C61.9302 28.49 62.0002 28.08 61.9202 27.45C61.9102 27.31 61.7702 25.94 61.7702 25.94L61.7002 24.34C61.6802 23.69 61.6802 23.03 61.6802 22.38C61.6802 21.07 61.7302 19.77 61.8402 18.46C61.8702 18.15 61.8902 17.84 61.9302 17.52L61.9502 17.53Z" fill="#154D82"/>
<path d="M73.9299 7.26997C73.9299 7.26997 73.9299 7.26997 73.9299 7.22997C73.9499 7.10997 73.9299 6.92997 73.9499 7.22997V7.26997L74.0099 8.20997C74.1799 11.36 74.2399 14.52 74.2499 17.67C74.2499 19.25 74.2399 20.82 74.1999 22.4L74.0999 25.41C74.0999 25.41 74.0499 26.15 74.0099 26.87C73.9699 27.89 74.0099 27.48 73.9599 26.85C73.9599 26.75 73.8599 25.34 73.8599 25.34L73.8199 24.49L73.7399 22.16C73.6999 20.61 73.6799 19.06 73.6699 17.51C73.6699 14.41 73.6999 11.31 73.8599 8.20997L73.9099 7.26997H73.9299Z" fill="#154D82"/>
<path d="M66.9299 17.1C66.9299 17.1 66.9299 17.1 66.9299 17.06C66.9599 16.94 66.9299 16.76 66.9599 17.06V17.1C66.9999 17.41 67.0099 17.72 67.0399 18.04C67.1599 19.56 67.1999 21.08 67.1999 22.6C67.1999 23.36 67.1899 24.12 67.1599 24.88L67.0799 26.6C67.0799 26.6 67.0099 27.27 66.9299 28.06C66.8599 29.08 66.9299 28.67 66.8599 28.04C66.8499 27.91 66.7199 26.52 66.7199 26.52L66.6499 24.76C66.6299 24.01 66.6299 23.27 66.6299 22.52C66.6399 21.03 66.6899 19.53 66.8199 18.04C66.8499 17.73 66.8699 17.42 66.9099 17.1H66.9299Z" fill="#154D82"/>
<path d="M53.5303 29.13C53.5303 29.13 53.5303 29.13 53.5303 29.19C53.4803 29.4 53.5303 29.7 53.4703 29.2C53.4703 29.19 53.4703 29.13 53.4603 29.13C53.4003 28.6 53.3503 28.08 53.3103 27.55C53.2103 26.3 53.1403 25.05 53.1003 23.8L53.0703 22.86V22.18C53.0803 22.04 53.0503 21.85 53.1203 21.76L53.5803 21.71L55.5803 21.5L56.5103 21.41L56.9803 21.37C56.9803 21.37 57.2603 21.35 57.2903 21.37L57.5203 21.39L58.4503 21.48L59.1503 21.54L59.3803 21.56C59.4703 21.56 59.4103 21.69 59.4403 21.74C59.4603 21.88 59.4603 22.04 59.4603 22.2L59.3903 24.16L59.3403 25.14C59.3403 25.14 59.1803 26.59 59.0903 27.61C59.0203 28.47 59.0403 28.73 59.0403 28.64C59.0403 28.55 59.0103 28.11 58.9703 27.57C58.9503 27.39 58.7303 25.01 58.7303 25.01L58.6703 23.93L58.6303 23.01L58.6103 22.55C58.6103 22.49 58.6003 22.35 58.6103 22.36C58.6103 22.36 58.6303 22.36 58.6203 22.36L58.2203 22.34L57.3003 22.28C57.2303 22.28 57.1203 22.27 57.1503 22.28L56.9203 22.3L56.4603 22.35L55.5403 22.44L53.9303 22.58C53.9303 22.58 53.9303 22.58 53.9403 22.58V22.69V22.92L53.9103 23.84C53.8603 25.07 53.8003 26.3 53.7003 27.52C53.6603 28.05 53.6103 28.57 53.5503 29.1L53.5303 29.13Z" fill="#154D82"/>
<path d="M79.9602 30.19C79.9602 30.19 79.9602 30.2 79.9602 30.25C79.9302 30.46 79.9602 30.76 79.9302 30.26C79.9302 30.25 79.9302 30.2 79.9302 30.19L79.8503 28.61C79.5903 23.03 79.5003 17.45 79.4803 11.87V7.69L79.5002 5.6C79.5802 5.61 79.3202 5.22 78.9702 4.53L78.7402 4.08C78.8402 4.02 79.0703 4.03 79.2303 4L80.1502 3.91C82.9402 3.68 85.7403 3.58 88.5403 3.64L89.6703 3.67C89.6703 3.67 91.0503 3.77 92.1403 3.85C93.8603 3.97 93.1803 3.89 92.1003 3.92C92.0303 3.92 91.5002 3.94 90.8602 3.96C90.2102 4 89.5403 4.03 89.5403 4.03L88.5403 4.08C85.7603 4.23 82.9903 4.45 80.2303 4.76H80.1102V4.77L80.1703 4.88L80.3102 5.14C80.3502 5.22 80.4103 5.29 80.3903 5.38V5.58L80.4102 7.67V11.85C80.4002 17.43 80.3103 23.01 80.0403 28.59L79.9602 30.17V30.19Z" fill="#154D82"/>
<path d="M79.4101 28.98C79.4101 28.98 79.4101 28.98 79.4701 28.98C79.6801 29.03 79.9801 28.98 79.4801 29.04C79.4701 29.04 79.4101 29.04 79.4101 29.05C78.8801 29.11 78.3501 29.15 77.8301 29.19C75.2001 29.38 72.5801 29.43 69.9501 29.42C68.6401 29.42 67.3301 29.39 66.0101 29.34L64.0401 29.25L63.0501 29.19C63.0501 29.19 61.6001 29.02 60.5801 28.93C59.7201 28.86 59.4601 28.87 59.5501 28.87C59.6401 28.87 60.0801 28.85 60.6201 28.81C60.8001 28.8 63.1801 28.6 63.1801 28.6L64.2701 28.55L66.2101 28.49C67.5001 28.46 68.7901 28.46 70.0801 28.48C72.6601 28.51 75.2401 28.61 77.8201 28.83C78.3501 28.87 78.8701 28.93 79.4001 28.99L79.4101 28.98Z" fill="#154D82"/>
<path d="M79.1102 6.75998C79.1102 6.75998 79.1102 6.75998 79.0502 6.75998C78.8302 6.70998 78.5402 6.80998 79.0302 6.67998C79.0402 6.67998 79.0902 6.65998 79.1002 6.65998C79.6202 6.52998 80.1402 6.42998 80.6602 6.31998C83.4002 5.83998 86.1902 5.59998 88.9902 5.77998L89.5902 5.81998L89.7902 5.83998C89.8602 5.83998 89.9402 5.83998 89.9202 5.92998C89.9302 6.06998 89.9702 6.17998 89.9502 6.33998C89.9502 6.30998 89.9402 6.60998 89.9202 6.70998C89.9002 6.85998 89.8802 7.06998 89.8502 7.31998C89.8202 7.54998 89.7902 7.82998 89.7502 8.12998C89.7702 8.25998 89.6502 8.32998 89.5702 8.38998L89.4002 8.50998C89.2902 8.57998 89.1802 8.65998 89.0702 8.73998C88.3602 9.23998 88.1702 9.41998 88.2402 9.35998C88.3102 9.29998 88.6202 8.98998 88.9902 8.59998C88.9702 8.61998 89.0702 8.50998 89.2302 8.33998C89.2702 8.29998 89.3102 8.24998 89.3602 8.19998C89.4102 8.13998 89.4102 8.16998 89.4002 8.13998C89.3802 7.98998 89.3702 7.83998 89.3502 7.67998C89.3102 7.34998 89.2802 7.01998 89.2502 6.76998C89.2502 6.70998 89.2402 6.64998 89.2302 6.59998C89.2302 6.59998 89.2102 6.61998 89.2202 6.60998H89.1302H88.9402C86.2002 6.66998 83.4502 6.81998 80.6802 6.80998C80.1502 6.78998 79.6202 6.78998 79.0902 6.76998L79.1102 6.75998Z" fill="#154D82"/>
<path d="M79.0302 10.22C79.0302 10.22 79.0302 10.22 78.9702 10.22C78.7602 10.16 78.4602 10.25 78.9502 10.14C78.9602 10.14 79.0202 10.12 79.0202 10.12C79.5402 10.01 80.0602 9.92001 80.5902 9.83001C83.3002 9.42001 86.0302 9.24001 88.7702 9.36001L89.2102 9.39001L89.5902 9.41001L89.7902 9.43001H89.8902C89.8902 9.43001 89.9002 9.50001 89.9102 9.53001C89.9002 9.54001 89.9602 9.67001 89.9302 9.99001C89.9302 10.18 89.9102 10.24 89.9002 10.35C89.8902 10.45 89.8702 10.57 89.8602 10.69C89.8302 10.92 89.8002 11.2 89.7602 11.49L89.7302 11.7C89.7502 11.83 89.6402 11.89 89.5502 11.94C89.4402 12.01 89.3202 12.07 89.2002 12.14C88.4602 12.59 88.2502 12.75 88.3302 12.69C88.4002 12.64 88.7402 12.35 89.1402 11.99C89.1202 12.01 89.2302 11.91 89.4002 11.75C89.4302 11.72 89.4502 11.73 89.4402 11.7C89.4402 11.64 89.4302 11.57 89.4202 11.51C89.4002 11.36 89.3902 11.19 89.3702 11.03C89.3402 10.71 89.3002 10.4 89.2802 10.16C89.3002 10.14 89.2502 10.17 89.2602 10.16C89.2602 10.16 89.2802 10.16 89.2402 10.16H89.1502L88.7702 10.18C86.0702 10.29 83.3502 10.39 80.6202 10.31C80.0902 10.28 79.5602 10.26 79.0302 10.22Z" fill="#154D82"/>
<path d="M79.0501 13.7C79.0501 13.7 79.0501 13.7 78.9901 13.7C78.7701 13.65 78.4802 13.74 78.9702 13.62C78.9802 13.62 79.0302 13.6 79.0402 13.6C79.5602 13.48 80.0801 13.38 80.6101 13.29C83.2401 12.87 85.9101 12.74 88.5801 12.96L89.6202 13.07C89.6202 13.07 89.6601 13.07 89.7401 13.09C89.7801 13.09 89.8202 13.11 89.8702 13.11C89.9002 13.14 89.8902 13.22 89.9002 13.28C89.9302 13.4 89.9102 13.6 89.9002 13.79C89.8902 13.89 89.8701 14.01 89.8601 14.13C89.8301 14.36 89.8002 14.63 89.7602 14.93L89.7302 15.14C89.7302 15.14 89.7502 15.36 89.6302 15.39C89.4402 15.5 89.3601 15.52 89.2401 15.59C88.4701 15.98 88.2501 16.13 88.3301 16.08C88.4101 16.03 88.7602 15.77 89.1802 15.43C89.1402 15.46 89.3002 15.33 89.4302 15.24C89.4502 15.22 89.4302 15.24 89.4302 15.17C89.4302 15.1 89.4102 15.03 89.4002 14.95C89.3802 14.8 89.3702 14.63 89.3502 14.47C89.3302 14.31 89.3102 14.14 89.2902 13.99C89.2902 13.92 89.2801 13.85 89.2701 13.78C89.2701 13.78 89.2901 13.76 89.2701 13.77C89.2401 13.77 89.2401 13.8 89.2401 13.79C89.2501 13.79 89.2102 13.79 89.1802 13.79H89.0902H88.9002H88.5201C85.9001 13.79 83.2702 13.85 80.6202 13.79C80.0902 13.77 79.5602 13.75 79.0302 13.72L79.0501 13.7Z" fill="#154D82"/>
<path d="M79.0902 17.34C79.0902 17.34 79.0902 17.34 79.0302 17.34C78.8102 17.28 78.5202 17.38 79.0102 17.26C79.0202 17.26 79.0702 17.24 79.0802 17.24C79.6002 17.13 80.1202 17.03 80.6502 16.94C83.1502 16.56 85.6702 16.4 88.2102 16.57C88.5102 16.6 88.8002 16.61 89.1002 16.66C89.1002 16.66 89.1902 16.68 89.3602 16.71C89.5102 16.73 89.6802 16.75 89.8402 16.79C89.8702 16.96 89.8802 17.17 89.8602 17.41C89.8302 17.64 89.8002 17.91 89.7602 18.21C89.7402 18.34 89.7202 18.48 89.7102 18.63L89.6902 18.83C89.6902 18.83 89.6902 18.93 89.6702 18.97C89.6302 18.99 89.5902 19.01 89.5402 19.02C88.6602 19.23 88.4402 19.31 88.5202 19.28C88.5902 19.26 89.0502 19.06 89.4702 18.88C89.4702 18.87 89.5002 18.93 89.4602 18.64C89.4302 18.39 89.4002 18.07 89.3602 17.75C89.3502 17.62 89.3002 17.34 89.3302 17.39C89.3302 17.37 89.2902 17.39 89.2902 17.39C89.0802 17.39 88.9402 17.4 88.9402 17.4H88.1902C85.7002 17.45 83.2002 17.53 80.6802 17.44C80.1502 17.41 79.6202 17.38 79.0902 17.35V17.34Z" fill="#154D82"/>
<path d="M79.1601 20.85C79.1601 20.85 79.1601 20.85 79.1001 20.85C78.8901 20.79 78.5901 20.88 79.0801 20.77C79.0901 20.77 79.1501 20.75 79.1501 20.75C79.6701 20.65 80.2001 20.56 80.7201 20.48C83.3201 20.13 85.9301 20 88.5601 20.19C88.7101 20.2 88.8601 20.21 89.0101 20.23L89.2301 20.26L89.5801 20.3C89.5801 20.3 89.6201 20.3 89.7001 20.32C89.7701 20.34 89.9201 20.32 89.8901 20.49C89.9201 20.62 89.9101 20.8 89.8901 21C89.8801 21.1 89.8601 21.22 89.8501 21.35C89.8201 21.58 89.7901 21.85 89.7501 22.15L89.7201 22.36C89.6901 22.43 89.7501 22.62 89.6301 22.62C89.3901 22.67 89.2901 22.65 89.1601 22.67C88.3001 22.74 88.0401 22.79 88.1301 22.78C88.2201 22.77 88.6501 22.66 89.1601 22.51C89.1501 22.51 89.1701 22.51 89.2301 22.49C89.2901 22.47 89.4101 22.44 89.4101 22.44C89.4301 22.44 89.4101 22.41 89.4101 22.39C89.4101 22.32 89.3901 22.25 89.3801 22.18C89.3601 22.03 89.3501 21.86 89.3301 21.7C89.3101 21.54 89.2901 21.37 89.2701 21.22C89.2701 21.16 89.2501 21.04 89.2501 21.02C89.2501 21.02 89.2601 21.01 89.2501 21.01C89.2201 21.02 89.2201 21.03 89.2201 21.03H89.1401H89.0501H88.8601H88.4901C85.9101 21.05 83.3101 21.11 80.7001 20.98C80.1701 20.94 79.6401 20.91 79.1101 20.86L79.1601 20.85Z" fill="#154D82"/>
<path d="M79.2802 24.3C79.2802 24.3 79.2802 24.3 79.2202 24.3C79.0102 24.23 78.7102 24.32 79.2002 24.22C79.2102 24.22 79.2702 24.2 79.2702 24.2C79.7902 24.11 80.3202 24.03 80.8502 23.95C83.4802 23.63 86.1202 23.52 88.7802 23.68L89.2302 23.72L89.6202 23.75L89.8202 23.78C89.9102 23.76 89.9002 23.85 89.9102 23.92C89.9102 23.92 89.9502 24.06 89.9202 24.38C89.9202 24.58 89.9002 24.59 89.8902 24.72C89.8802 24.82 89.8602 24.94 89.8502 25.06C89.8202 25.29 89.7902 25.56 89.7502 25.86C89.7502 25.94 89.7302 25.97 89.7202 26.1C89.7202 26.16 89.7102 26.21 89.7002 26.26C89.6802 26.3 89.6102 26.29 89.5702 26.3C89.3102 26.31 89.2502 26.3 89.1002 26.3C88.2302 26.27 87.9802 26.3 88.0702 26.3C88.1602 26.3 88.6002 26.23 89.1302 26.14C89.1202 26.14 89.1502 26.14 89.2102 26.12C89.2602 26.12 89.4002 26.08 89.4102 26.09C89.4502 26.14 89.3802 25.72 89.3502 25.41C89.3102 25.09 89.2802 24.76 89.2502 24.52C89.2802 24.49 89.2202 24.52 89.2402 24.52H89.1502H88.7802C86.1602 24.58 83.5302 24.62 80.8902 24.45C80.3602 24.41 79.8302 24.36 79.3002 24.31L79.2802 24.3Z" fill="#154D82"/>
<path d="M71.8203 39.27C71.8203 39.27 71.8003 39.27 71.7603 39.26C71.5503 39.22 71.2503 39.2 71.7503 39.24C71.7603 39.24 71.8103 39.24 71.8203 39.24C72.3403 39.29 72.8703 39.32 73.4003 39.34C76.4703 39.46 79.5403 39.35 82.6203 39.54C83.3903 39.59 84.1603 39.66 84.9403 39.77C85.3303 39.83 85.7103 39.89 86.1003 40C86.2903 40.05 86.4903 40.11 86.6903 40.19C86.7903 40.23 86.8903 40.26 87.0003 40.34C87.0603 40.38 87.1103 40.4 87.1703 40.45C87.2403 40.51 87.3003 40.59 87.3503 40.66C87.4003 40.74 87.4103 40.83 87.4403 40.92C87.4403 41.01 87.4103 41.1 87.3903 41.19C87.2903 41.34 87.1703 41.52 87.0703 41.56C86.8503 41.73 86.6803 41.79 86.4703 41.88C86.0603 42.03 85.6703 42.11 85.2803 42.17C84.4903 42.29 83.7103 42.34 82.9303 42.36C79.8203 42.42 76.7003 42.07 73.6903 41.19C72.9403 40.97 72.1903 40.67 71.5003 40.44C70.7903 40.22 70.0603 40.03 69.3203 39.88C67.8403 39.58 66.3303 39.4 64.8203 39.28C61.7803 39.04 58.7203 39.04 55.6603 39.08C52.5903 39.17 49.4803 39.06 46.4103 38.65C45.6403 38.54 44.8802 38.42 44.1102 38.25C43.7302 38.16 43.3503 38.06 42.9703 37.91C42.7703 37.82 42.6003 37.78 42.3703 37.52C42.2503 37.39 42.2003 37.17 42.3203 37.02C42.4203 36.87 42.5703 36.77 42.6503 36.73C43.4403 36.38 44.1803 36.29 44.9403 36.13L46.0703 35.92L46.6303 35.81L47.0703 35.71C47.0703 35.71 47.0702 35.71 47.0502 35.71L46.8203 35.69L46.3602 35.66C46.3602 35.66 44.9103 35.57 43.8903 35.56C42.1603 35.55 42.8503 35.57 43.9203 35.52C43.9803 35.52 44.5103 35.5 45.1603 35.47C45.8203 35.46 46.4903 35.44 46.4903 35.44H46.9503L47.0703 35.46L47.2803 35.49L47.3803 35.51H47.4203C47.4803 35.55 47.5302 35.58 47.5502 35.62C47.6002 35.72 47.5603 35.82 47.4303 35.89C47.0603 36.05 46.9503 36.06 46.7503 36.12L46.2003 36.26C45.4603 36.44 44.7303 36.6 44.0003 36.79C43.6403 36.89 43.2803 36.99 42.9703 37.13C42.9103 37.16 42.8103 37.22 42.7903 37.23L42.7703 37.25C42.7703 37.25 42.8703 37.32 43.0303 37.39C44.3703 37.85 45.9203 37.97 47.4003 38.12C50.4003 38.39 53.3803 38.35 56.4103 38.23C59.4403 38.15 62.4703 38.15 65.5103 38.42C67.0303 38.56 68.5502 38.76 70.0502 39.1C70.8002 39.27 71.5503 39.47 72.2803 39.75C73.0203 40.01 73.6703 40.26 74.3903 40.46C77.2403 41.26 80.2503 41.6 83.2203 41.58C83.9603 41.56 84.7103 41.53 85.4203 41.42C86.1003 41.37 86.9803 40.9 86.6503 40.97C86.1503 40.68 85.3403 40.51 84.6403 40.39C83.9103 40.26 83.1603 40.17 82.4203 40.1C79.4303 39.82 76.4003 39.78 73.3903 39.49C72.8603 39.44 72.3403 39.38 71.8203 39.29V39.27Z" fill="#154D82"/>
<path d="M43.2902 35.06C43.2902 35.06 43.2901 35.06 43.2401 35.06C43.0801 35.05 42.8502 35.06 43.2302 35.04C43.2402 35.04 43.2802 35.04 43.2902 35.04L44.4802 34.97C45.1702 34.94 45.8502 34.93 46.5402 34.94C47.2302 34.96 47.9102 34.96 48.6302 35.15C48.6902 35.17 48.8702 35.23 48.9802 35.35C49.0802 35.46 49.1202 35.63 49.0402 35.75C49.0102 35.87 48.7702 36 48.7202 36.02C48.6302 36.07 48.5501 36.1 48.4601 36.13C48.1201 36.25 47.7902 36.34 47.4502 36.43L45.4502 36.9L44.9601 37.03L44.6302 37.13L44.7302 37.16L44.9601 37.2C45.1101 37.23 45.0602 37.21 45.1202 37.22C45.1502 37.22 45.2002 37.22 45.1902 37.22C45.1902 37.2 45.1902 37.26 45.1902 37.17C45.1702 37.13 45.3302 36.84 45.4102 36.81C45.8002 36.51 46.1401 36.42 46.4901 36.32C46.8401 36.22 47.1802 36.16 47.5302 36.09C48.2202 35.98 48.9002 35.89 49.5902 35.83C51.0102 35.7 52.4202 35.61 53.8502 35.61C54.5602 35.61 55.2802 35.64 56.0002 35.73C56.3602 35.79 56.7202 35.83 57.1202 36.03C57.2102 36.08 57.4102 36.21 57.4502 36.36C57.5202 36.51 57.5002 36.69 57.3902 36.82C57.1602 37.11 56.9902 37.12 56.8102 37.22C56.1002 37.49 55.4002 37.6 54.6902 37.7C53.9802 37.79 53.2702 37.85 52.5702 37.88L51.6202 37.91C51.6202 37.91 50.6002 37.89 49.7602 37.87C48.4602 37.83 48.9802 37.87 49.7802 37.83C49.8302 37.83 50.2301 37.8 50.7101 37.77C51.2001 37.72 51.7002 37.67 51.7002 37.67L52.0402 37.64L52.9601 37.54C53.6301 37.46 54.3001 37.36 54.9601 37.22C55.6001 37.08 56.3002 36.92 56.8102 36.63L56.8902 36.57H56.8702C56.8102 36.53 56.7501 36.51 56.6801 36.49C56.3901 36.41 56.0602 36.36 55.7302 36.34C55.0702 36.28 54.4002 36.28 53.7202 36.3C52.3702 36.33 51.0102 36.44 49.6602 36.56C48.9802 36.63 48.3101 36.71 47.6501 36.81C47.3201 36.87 46.9901 36.92 46.6801 37.01C46.3701 37.08 46.0402 37.21 45.8902 37.32C45.8702 37.33 45.8502 37.35 45.8702 37.34C45.8802 37.34 45.8202 37.31 45.7902 37.3C45.9202 37.34 45.9801 37.41 46.0801 37.46C46.1901 37.54 46.2202 37.53 46.3902 37.67L46.6501 37.88L46.7802 37.99L46.8502 38.04C46.8502 38.04 46.8202 38.04 46.8102 38.04L46.3902 38L45.7302 37.93L45.2602 37.88C45.1202 37.86 44.9102 37.85 44.8502 37.83L44.5801 37.77C44.4501 37.73 44.3302 37.7 44.2002 37.66C43.8902 37.54 43.6901 37.4 43.6801 37.15C43.6801 36.91 43.8502 36.75 44.1702 36.62C44.3002 36.56 44.4602 36.52 44.5602 36.49L44.8202 36.42L45.3301 36.3L47.3402 35.9C47.9402 35.79 48.9302 35.51 48.5002 35.52C47.9102 35.32 47.2002 35.27 46.5302 35.2C45.8502 35.14 45.1701 35.11 44.4901 35.08L43.3001 35.03L43.2902 35.06Z" fill="#154D82"/>
<path d="M89.0104 31.73C89.0104 31.73 89.0103 31.73 89.0703 31.73C89.2803 31.71 89.5503 31.56 89.0903 31.77C89.0803 31.77 89.0303 31.79 89.0203 31.8C88.9603 31.82 88.8903 31.84 88.8203 31.85C88.7903 31.85 88.7403 31.88 88.6803 31.83C88.6503 31.8 88.6203 31.78 88.6003 31.75C88.5103 31.63 88.4704 31.48 88.4504 31.34C88.4004 31.06 88.4703 30.77 88.4103 30.57C88.3503 30.26 88.1203 30 87.8803 29.97C87.6503 29.92 87.4003 30.11 87.1603 30.35C87.0903 30.42 87.0703 30.44 86.9603 30.57C86.8403 30.71 86.7003 30.85 86.5803 30.89C86.4703 30.94 86.3103 30.89 86.2403 30.83C86.1503 30.78 86.0703 30.5 86.0003 30.42C85.8303 30.19 85.5503 29.95 85.3703 29.9C85.2703 29.9 85.2903 29.9 85.2403 29.94C85.1103 30.09 84.8104 30.33 84.4804 30.33C83.8304 30.3 83.5503 29.99 83.2703 29.93C83.1403 29.89 83.0604 29.89 82.9804 29.92C82.9004 29.94 82.6503 30.06 82.5603 30.12C82.4403 30.19 82.3903 30.25 82.3203 30.36L82.2904 30.41L82.2004 30.54C82.1404 30.61 82.0703 30.67 82.0003 30.71C81.8703 30.8 81.7403 30.85 81.6303 30.89C81.4003 30.97 81.1903 31 81.0203 31.04L80.9003 31.07C80.9003 31.07 80.8404 31.12 80.7904 31.15L80.6404 31.24C80.2504 31.44 79.8803 31.56 79.6603 31.71C79.5603 31.79 79.5403 31.81 79.5503 31.79C79.5503 31.79 79.5503 31.79 79.5503 31.82L79.5803 31.98C79.6003 32.09 79.6103 32.21 79.6103 32.33C79.6103 32.85 79.4003 33.26 79.3503 33.54C79.3003 33.83 79.2903 33.92 79.3803 34.03C79.4303 34.1 79.5203 34.17 79.6503 34.3C79.7803 34.42 79.9704 34.66 79.9804 34.94C80.0104 35.18 79.9204 35.46 79.7604 35.64C79.6004 35.82 79.5703 35.84 79.5803 35.83C79.5403 35.83 79.6803 36.25 79.7403 36.5C79.8103 36.76 79.9103 36.94 80.0903 37.16L80.3904 37.5L80.4703 37.58C80.4703 37.58 80.4503 37.58 80.4903 37.59L80.8003 37.63C80.8003 37.63 81.1803 37.7 81.6503 37.84C81.8803 37.91 82.1504 37.97 82.4204 38C82.5704 38.03 82.6603 38 82.8603 38.04C83.0203 38.2 83.0003 38.32 83.0303 38.46C83.0203 39.34 82.8804 39.58 82.9204 39.49C82.9304 39.41 83.0304 38.95 82.9204 38.44C82.9304 38.48 82.8803 38.29 82.8003 38.19C82.7803 38.18 82.5703 38.22 82.4303 38.22C82.2703 38.22 82.1003 38.22 81.9403 38.22C81.6103 38.19 81.2803 38.17 81.0303 38.15C80.7903 38.14 80.6303 38.15 80.6303 38.15C80.5303 38.14 80.4503 38.18 80.2203 38.09C80.0303 37.98 79.9903 37.91 79.9103 37.84L79.7904 37.73C79.6804 37.63 79.5703 37.52 79.4703 37.4C79.2503 37.16 79.1103 36.82 79.0203 36.55L78.8703 36.14C78.8203 35.98 78.7704 35.7 78.9204 35.44C79.0704 35.21 79.1703 35.14 79.1603 35.11C79.1703 35.11 79.1603 35.01 79.1603 35C79.1903 34.98 78.9403 34.84 78.6603 34.52C78.5303 34.35 78.4403 34.11 78.4303 33.9C78.4203 33.68 78.4403 33.54 78.4703 33.37C78.5603 32.9 78.7003 32.61 78.6803 32.35C78.6803 32.28 78.6703 32.21 78.6603 32.13L78.6404 32.01C78.6304 31.95 78.6103 31.84 78.6203 31.75C78.6403 31.33 78.9303 31.05 79.1303 30.92C79.5503 30.65 79.9204 30.55 80.2004 30.39L80.2904 30.34L80.4204 30.25C80.5004 30.2 80.6003 30.16 80.6803 30.14L80.8503 30.1C81.0503 30.06 81.2203 30.04 81.3503 29.99C81.4203 29.97 81.4703 29.94 81.5003 29.93C81.5303 29.93 81.4904 29.9 81.5404 29.94C81.5504 29.95 81.5703 29.97 81.5903 29.98C81.4203 29.88 81.5404 29.95 81.5104 29.93L81.5203 29.9L81.5404 29.86C81.6704 29.65 81.8903 29.43 82.1103 29.32C82.2203 29.26 82.3203 29.22 82.4103 29.18C82.5103 29.14 82.5704 29.11 82.7304 29.06C83.0204 28.97 83.3303 29.01 83.5603 29.1C84.0003 29.27 84.3403 29.52 84.4703 29.51C84.5303 29.51 84.5603 29.51 84.6903 29.39C84.9003 29.15 85.3403 29.07 85.6103 29.18C86.1203 29.37 86.3603 29.7 86.6003 30.06L86.6203 30.09L86.8103 29.92C86.9603 29.79 87.1303 29.67 87.3303 29.59C87.5303 29.49 87.8003 29.45 88.0303 29.53C88.5103 29.68 88.7403 30.13 88.7703 30.53C88.7903 30.68 88.7704 30.84 88.7304 30.96C88.7004 31.08 88.6903 31.21 88.6903 31.33C88.6903 31.45 88.7103 31.58 88.7503 31.68C88.7603 31.71 88.7804 31.73 88.7904 31.75C88.7904 31.75 88.8103 31.75 88.8403 31.75C88.9003 31.75 88.9703 31.75 89.0303 31.75L89.0104 31.73Z" fill="#154D82"/>
<path d="M93.4801 39.37C93.4801 39.37 93.4801 39.37 93.4701 39.43C93.3901 39.64 93.4701 39.94 93.3901 39.44C93.3901 39.43 93.3801 39.37 93.3801 39.36C93.3401 38.82 93.3401 38.29 93.4601 37.73C93.5101 37.54 93.5701 37.35 93.7001 37.15C93.7801 37.05 93.8701 36.95 94.0301 36.88C94.1901 36.82 94.3701 36.82 94.5101 36.88C94.8501 37.01 95.0101 36.95 95.0901 36.84C95.1801 36.72 95.2001 36.46 95.1101 36.25C95.0901 36.2 95.0601 36.14 95.0301 36.1L94.9801 36.03L94.8201 35.85C94.5701 35.61 94.5501 35.27 94.7301 35.05C94.8101 34.94 95.0501 34.81 95.0401 34.8C95.0401 34.8 95.0401 34.79 95.0501 34.76C95.0601 34.69 95.0501 34.55 95.0301 34.44C94.9701 34.19 94.8301 33.95 94.6301 33.73C94.4401 33.5 94.2101 33.42 94.2101 33.44C94.2401 33.41 94.0601 33.53 93.8901 33.55C93.7201 33.59 93.5301 33.56 93.4001 33.51C93.1301 33.4 92.9901 33.26 92.9101 33.22C92.8301 33.17 92.7901 33.15 92.7801 33.15C92.7801 33.15 92.7701 33.15 92.7501 33.15L92.6401 33.2L92.5301 33.24C92.5301 33.24 92.4201 33.27 92.2301 33.29C92.0501 33.3 91.7401 33.32 91.4501 33.1C91.1401 32.88 91.0801 32.47 91.1101 32.19C91.1301 31.93 91.0901 31.66 90.9501 31.47C90.6901 31.15 90.3501 31.15 90.2101 31.15C90.0501 31.16 90.0101 31.18 90.0501 31.17C90.1101 31.17 90.6301 30.96 91.0901 31.39C91.0701 31.37 91.2001 31.47 91.3101 31.71C91.4401 31.94 91.4401 32.34 91.5701 32.52C91.7001 32.71 91.8901 32.69 92.0801 32.64C92.2601 32.59 92.3701 32.51 92.3601 32.51C92.3601 32.51 92.3901 32.49 92.4501 32.46C92.5001 32.44 92.5501 32.41 92.6101 32.4C92.7201 32.37 92.8601 32.37 92.9601 32.39C93.1801 32.43 93.3201 32.53 93.4401 32.59C93.6001 32.69 93.7101 32.72 93.7101 32.71C93.7101 32.71 93.7101 32.71 93.7301 32.69C93.7901 32.65 93.9901 32.55 94.1401 32.55C94.8201 32.53 95.1301 32.91 95.4101 33.2C95.6701 33.51 95.8901 33.89 95.9701 34.34C96.0001 34.57 96.0201 34.79 95.9301 35.1C95.9001 35.23 95.7501 35.44 95.7001 35.47V35.48L95.7601 35.57C95.7901 35.62 95.8201 35.67 95.8501 35.72C95.9001 35.83 95.9501 35.93 95.9701 36.05C96.0901 36.49 96.0401 37.04 95.6301 37.43C95.1901 37.85 94.5201 37.65 94.2801 37.51C94.2401 37.49 94.2501 37.46 94.1501 37.54C94.0701 37.62 93.9901 37.76 93.9301 37.9C93.7201 38.35 93.6001 38.87 93.5001 39.38L93.4801 39.37Z" fill="#154D82"/>
<path d="M87.19 38.86C87.19 38.86 87.19 38.86 87.13 38.84C87.08 38.82 86.99 38.78 86.88 38.72C86.84 38.7 86.88 38.75 87.14 38.75C87.15 38.75 87.21 38.75 87.21 38.75C87.47 38.75 87.72 38.71 87.9 38.58C88.08 38.45 88.14 38.28 88.2 38.05C88.22 37.94 88.23 37.83 88.22 37.73C88.22 37.62 88.16 37.54 88.18 37.22C88.2 36.95 88.51 36.79 88.7 36.74C88.87 36.69 89.01 36.66 89.22 36.66C89.32 36.66 89.42 36.68 89.52 36.71C89.63 36.74 89.72 36.79 89.72 36.8C89.72 36.8 89.79 36.73 89.85 36.44C89.95 36.05 89.82 35.01 89.97 34.78C90.07 34.47 90.08 34.3 90.21 34.04L91.35 36.14L91.65 36.69C91.72 36.83 91.8 37.01 91.84 37.12C91.84 37.12 91.84 37.13 91.84 37.15L91.78 37.2C91.74 37.24 91.78 37.19 91.81 37.15C91.81 37.16 91.87 37.2 91.96 37.23C92.03 37.26 92.11 37.28 92.23 37.3C92.34 37.32 92.47 37.32 92.66 37.37C92.75 37.39 92.89 37.47 92.95 37.59C93.01 37.7 93.02 37.81 93.01 37.89C92.98 38.19 92.92 38.46 92.9 38.72C92.8 39.58 92.8 39.84 92.81 39.75C92.81 39.66 92.78 39.22 92.73 38.68C92.73 38.71 92.72 38.56 92.69 38.33C92.68 38.21 92.66 38.07 92.65 37.93C92.65 37.87 92.62 37.82 92.61 37.83C92.62 37.83 92.61 37.86 92.55 37.85C92.32 37.89 91.85 37.94 91.54 37.82C91.45 37.79 91.32 37.71 91.25 37.63C91.18 37.54 91.15 37.49 91.13 37.45C91.09 37.38 91.07 37.35 91.07 37.35C91.02 37.25 90.96 37.16 90.9 37.07L90.87 37.01L90.74 36.74V36.77C90.72 36.85 90.63 37.08 90.54 37.22C90.5 37.29 90.44 37.38 90.36 37.5C90.28 37.6 90.19 37.68 90.09 37.73C89.86 37.83 89.66 37.8 89.43 37.6C89.33 37.51 89.3 37.49 89.28 37.49C89.25 37.49 89.23 37.47 89.19 37.46C89.13 37.44 89 37.45 88.91 37.46H88.87C88.87 37.41 88.87 37.6 88.86 37.76C88.84 37.92 88.8 38.08 88.74 38.23C88.64 38.5 88.39 38.81 88.09 38.9C87.79 39 87.49 38.97 87.23 38.88L87.19 38.86Z" fill="#154D82"/>
<path d="M50.2801 33.11C50.2801 33.11 50.2801 33.11 50.3201 33.09C50.4901 33.05 50.5701 32.79 50.3901 33.16C50.3901 33.16 50.3701 33.2 50.3601 33.21C50.2901 33.29 50.2101 33.36 50.1301 33.42L49.8801 33.61C49.8001 33.68 49.6901 33.68 49.6001 33.65C49.5101 33.62 49.4601 33.59 49.4201 33.56C49.3301 33.51 49.2501 33.48 49.1901 33.46C49.1601 33.46 49.1301 33.46 49.1101 33.46C49.1001 33.46 49.0701 33.47 48.9801 33.49C48.9101 33.5 48.8401 33.51 48.7701 33.51H48.6201L48.5901 33.55C48.4701 33.68 48.3701 33.75 48.2701 33.82L47.9401 34.05C47.7901 34.15 47.6701 34.15 47.5301 34.1C47.4601 34.07 47.3901 34.01 47.3301 33.92L47.2501 33.78C47.2501 33.78 47.2501 33.77 47.2501 33.74C47.2501 33.76 47.2501 33.76 47.2501 33.76C47.2501 33.76 47.2201 33.76 47.1901 33.76C47.1901 33.76 47.1601 33.76 47.0701 33.76C46.9701 33.78 46.7901 33.82 46.5901 33.84C46.3901 33.86 46.1601 33.86 45.9601 33.84H45.8501C45.8501 33.84 45.8301 33.86 45.8201 33.87C45.7801 33.93 45.7501 34.03 45.7401 34.12C45.6701 34.76 45.7801 34.96 45.7501 34.89C45.7401 34.82 45.6201 34.52 45.5601 34.09C45.5601 34.11 45.5201 34.01 45.5701 33.78C45.5901 33.72 45.5901 33.66 45.7001 33.57C45.7901 33.51 45.8601 33.5 45.9201 33.48C46.0401 33.45 46.1501 33.43 46.2601 33.39C46.4801 33.32 46.6901 33.23 46.8501 33.15C47.0501 33.05 47.2701 33.04 47.2701 33.04C47.4201 33.04 47.6401 33.1 47.7801 33.24L47.8201 33.28L47.9201 33.22C48.0101 33.17 48.0901 33.11 48.1301 33.08C48.1401 33.08 48.2501 32.93 48.3401 32.9C48.4401 32.85 48.5501 32.85 48.6601 32.87L48.8401 32.91H48.9601C48.9601 32.91 49.0701 32.91 49.1701 32.93C49.2601 32.93 49.3401 32.97 49.4201 33C49.5501 33.06 49.6401 33.15 49.7101 33.22C49.8001 33.3 49.7901 33.3 49.7901 33.3C49.7701 33.3 49.8301 33.28 49.8501 33.28L49.9201 33.26L50.0601 33.22C50.1501 33.19 50.2401 33.17 50.3201 33.12L50.2801 33.11Z" fill="#154D82"/>
<path d="M58.9199 37.94C58.9199 37.94 58.9199 37.94 58.9099 37.98C58.8399 38.12 58.8399 38.33 58.8499 37.98C58.8499 37.97 58.8499 37.93 58.8499 37.93C58.8499 37.57 58.7699 37.2 58.5599 36.96C58.4599 36.84 58.2999 36.68 58.1699 36.54C58.0299 36.4 57.9099 36.26 57.7699 36.14C57.6999 36.08 57.6299 36.03 57.5799 36C57.4899 35.98 57.6399 35.98 57.4799 36C57.2099 36.03 56.9899 35.99 56.7799 35.94C56.6099 35.9 56.4699 35.83 56.3899 35.83L55.9699 35.79L55.0899 35.72L54.2099 35.65C54.0599 35.67 53.9199 35.55 53.8899 35.54L53.7099 35.46C53.5899 35.41 53.4599 35.36 53.3299 35.33C53.2399 35.31 53.1499 35.29 53.0599 35.28C52.9699 35.27 52.8899 35.26 52.7899 35.26C52.7899 35.26 52.6199 35.26 52.3799 35.21C52.2599 35.19 52.1199 35.15 51.9799 35.1C51.8299 35.04 51.7099 34.99 51.5399 34.88C51.4399 34.73 51.4499 34.67 51.4199 34.56C51.3999 34.47 51.3999 34.37 51.3899 34.3C51.2999 34.04 51.0999 33.89 51.1199 33.77C51.1199 33.66 51.1299 33.63 51.1199 33.66C51.1199 33.69 51.0999 33.79 51.1799 33.9C51.2499 34 51.4099 34.09 51.4899 34.3C51.4899 34.28 51.5099 34.35 51.5299 34.43C51.5399 34.47 51.5599 34.52 51.5899 34.58C51.6099 34.63 51.6699 34.7 51.6699 34.7C51.7399 34.73 51.9099 34.77 52.0299 34.78C52.1599 34.8 52.2999 34.8 52.4199 34.8C52.6499 34.8 52.8199 34.75 52.8299 34.75C53.0299 34.73 53.2299 34.74 53.4299 34.77C53.5899 34.8 53.7499 34.84 53.9099 34.89C54.0399 34.93 54.2899 35.05 54.2299 35.02L55.1199 35.06C55.4199 35.08 55.7199 35.1 56.0199 35.13C56.1699 35.15 56.3199 35.16 56.4799 35.2C56.6999 35.24 56.8199 35.32 56.9399 35.35C57.0999 35.4 57.2799 35.44 57.3999 35.44C57.3999 35.44 57.5299 35.42 57.6199 35.44C57.7199 35.46 57.8099 35.51 57.8599 35.55C57.9699 35.63 58.0499 35.71 58.1199 35.79C58.2599 35.95 58.3799 36.11 58.4899 36.28C58.5999 36.45 58.6999 36.59 58.8199 36.79C59.0099 37.18 58.9899 37.59 58.8999 37.96L58.9199 37.94Z" fill="#154D82"/>
<path d="M69.9601 37.18C69.9601 37.18 69.9601 37.18 70.0001 37.19C70.1401 37.24 70.3601 37.19 70.0001 37.24C69.9901 37.24 69.9502 37.24 69.9502 37.24C69.7602 37.24 69.5702 37.2 69.3902 37.18C69.3002 37.17 69.2101 37.16 69.1301 37.16C69.0301 37.16 69.0001 37.18 68.8701 37.19C68.4401 37.2 68.0801 37.1 67.7701 37.19C67.6101 37.22 67.5301 37.3 67.3301 37.42C67.1701 37.52 66.9001 37.62 66.7701 37.66C66.7401 37.67 66.7301 37.68 66.7101 37.7C66.7301 37.7 66.5401 37.8 66.4901 37.8C66.3801 37.83 66.2801 37.85 66.1801 37.87C65.9801 37.91 65.7901 37.94 65.6001 37.96C65.2201 38.01 64.8302 38.05 64.4502 38.07C64.0602 38.09 63.6801 38.1 63.2801 38.09C62.8701 38.06 62.5201 38.09 62.0201 37.88C61.9501 37.86 61.8901 37.79 61.8301 37.71C61.7701 37.65 61.6901 37.53 61.7201 37.54C61.7001 37.5 61.6701 37.45 61.6201 37.41C61.5201 37.32 61.3701 37.23 61.2101 37.16C61.0801 37.1 61.0101 37.08 60.9101 37.05L60.7701 37.01C60.7701 37.01 60.7401 37.01 60.6801 37.01C60.6801 37.01 60.4401 37.01 60.0801 37.02C59.9301 37.04 59.6401 37.01 59.6801 37.05C59.6301 37.22 59.5702 37.4 59.5102 37.59C59.3402 38.17 59.3101 38.35 59.3301 38.29C59.3401 38.23 59.3801 37.92 59.4301 37.55C59.4301 37.52 59.4401 37.44 59.4601 37.3C59.4601 37.22 59.4801 37.12 59.4901 37.01C59.4501 36.77 59.7401 36.77 59.8101 36.75C60.2701 36.64 60.7101 36.53 60.7101 36.53C61.1201 36.53 61.1102 36.56 61.5402 36.69C61.7302 36.76 61.9401 36.86 62.1201 37.05C62.1701 37.09 62.2001 37.15 62.2401 37.21C62.2601 37.24 62.2702 37.28 62.2902 37.31C62.2802 37.31 62.3201 37.31 62.3701 37.34C62.6601 37.4 63.0401 37.42 63.4001 37.42C63.7601 37.42 64.1301 37.41 64.5001 37.39C64.8701 37.37 65.2401 37.35 65.6001 37.31C65.7801 37.29 65.9702 37.28 66.1402 37.25L66.3601 37.22C66.3601 37.22 66.4001 37.29 66.4301 37.33L66.4901 37.4V37.42C66.5401 37.47 66.2401 37.06 66.3701 37.23L66.4601 37.17C66.5201 37.14 66.5901 37.11 66.6501 37.09C66.8601 37.05 66.9702 37.02 67.1402 36.94C67.2702 36.88 67.5301 36.74 67.7401 36.73C68.1801 36.69 68.5702 36.84 68.8902 36.89C68.9402 36.89 69.0901 36.89 69.1801 36.91C69.2801 36.93 69.3701 36.96 69.4601 36.98C69.6401 37.04 69.8101 37.1 69.9901 37.15L69.9601 37.18Z" fill="#154D82"/>
<path d="M66.8403 31.07C66.8403 31.07 66.8403 31.07 66.7903 31.1C66.6303 31.23 66.5303 31.54 66.7403 31.07C66.7403 31.06 66.7803 31.01 66.7903 31.01C66.9803 30.82 67.1203 30.61 67.3303 30.42C67.5403 30.23 67.7903 30.09 68.0103 29.96C68.1403 29.87 68.4003 29.71 68.6303 29.69C68.8503 29.66 69.0603 29.66 69.2503 29.64C69.4403 29.63 69.6203 29.61 69.7803 29.56C69.8803 29.53 70.2103 29.39 70.4803 29.44C70.7603 29.47 70.9903 29.6 71.1703 29.7L71.2503 29.75C71.2503 29.75 71.1903 29.78 71.3203 29.71C71.7603 29.48 72.2503 29.41 72.7103 29.46C72.9103 29.48 73.1903 29.55 73.4003 29.73C73.6103 29.9 73.7303 30.13 73.8103 30.31L73.8603 30.45C73.8603 30.45 73.8103 30.44 73.9003 30.46C73.9803 30.49 74.0803 30.53 74.1803 30.64C74.4003 30.86 74.3803 31.18 74.3503 31.29L74.2903 31.49C74.3603 31.51 74.5503 31.56 74.6803 31.58C74.8303 31.61 74.9803 31.63 75.1203 31.64C75.1703 31.64 75.6703 31.64 75.9103 31.9C75.9703 31.96 76.0303 32.02 76.0703 32.1C76.0903 32.14 76.1103 32.17 76.1303 32.21L76.1603 32.29C76.0503 32.07 76.1303 32.23 76.1003 32.18V32.2L76.2403 32.4C76.3403 32.53 76.4503 32.66 76.5403 32.74C76.6103 32.8 76.5703 32.77 76.7203 32.87C76.8303 32.94 76.9503 33.06 77.0403 33.22C77.2103 33.57 77.1203 33.89 77.0603 34.07C76.9903 34.27 76.9303 34.42 76.8903 34.56C76.8503 34.7 76.8403 34.81 76.8603 34.92C76.8703 34.97 76.8903 35.03 76.9303 35.1L76.9903 35.24C76.9903 35.24 77.0303 35.32 77.0403 35.36C77.0603 35.48 77.0803 35.62 77.0103 35.73C76.9603 35.85 76.8603 35.93 76.7603 36.01C76.6403 36.07 76.5403 36.12 76.4703 36.13C76.3903 36.15 76.3203 36.17 76.2503 36.18C76.2503 36.18 76.2003 36.18 76.1003 36.2C76.0503 36.2 75.9903 36.2 75.9203 36.21C75.8503 36.21 75.7503 36.22 75.7703 36.21C75.7703 36.21 75.7403 36.21 75.7403 36.23C75.7403 36.25 75.7403 36.23 75.7603 36.33C75.7803 36.43 75.8003 36.58 75.7203 36.68C75.6603 36.74 75.5903 36.78 75.5103 36.81C75.4503 36.83 75.4003 36.84 75.3503 36.85C75.2503 36.87 75.1403 36.89 75.0403 36.9C74.8403 36.93 74.6403 36.94 74.4503 36.96C73.6003 37.1 73.3303 37.06 73.4303 37.07C73.5203 37.07 73.9603 37.02 74.4703 36.82C74.4403 36.82 74.5703 36.79 74.7803 36.73C74.8803 36.7 75.0003 36.66 75.1303 36.62C75.2503 36.58 75.4303 36.5 75.4103 36.5C75.4103 36.49 75.4103 36.48 75.4103 36.47C75.4103 36.45 75.3403 36.34 75.3003 36.22C75.2103 36 75.3503 35.79 75.5603 35.75C75.6803 35.72 75.7803 35.69 75.8803 35.66C75.9503 35.64 76.0103 35.62 76.0703 35.6C76.1703 35.57 76.2203 35.54 76.2203 35.54C76.2703 35.52 76.3003 35.5 76.3403 35.49H76.3503L76.3103 35.42C76.2503 35.34 76.2003 35.23 76.1603 35.11C76.0803 34.86 76.0903 34.61 76.1303 34.39C76.1703 34.17 76.2303 33.98 76.2703 33.84C76.3103 33.68 76.2903 33.62 76.2903 33.63C76.2903 33.63 76.2803 33.62 76.2303 33.59C76.2303 33.59 76.0303 33.48 75.9703 33.41C75.7903 33.26 75.6603 33.11 75.5303 32.96L75.3503 32.72V32.7H75.3303L75.2703 32.59C75.2203 32.61 75.7203 32.42 75.5003 32.5H75.4903L75.4403 32.52L75.3603 32.55L75.2803 32.59H75.2703C75.2703 32.59 75.3403 32.59 75.0403 32.57C74.8503 32.56 74.6803 32.54 74.5003 32.51C74.3103 32.48 74.1703 32.45 73.9303 32.38C73.6203 32.28 73.3303 32.11 73.2603 31.81C73.2303 31.67 73.2503 31.52 73.3003 31.37L73.3803 31.16L73.4003 31.1C73.4003 31.1 73.3803 31.1 73.4903 31.1C73.5303 31.11 73.5903 31.1 73.6303 31.1C73.6903 31.1 73.7103 31.07 73.6803 31.1L73.6303 31.17C73.6303 31.17 73.6003 31.23 73.5703 31.3C73.5603 31.39 73.5303 31.31 73.4803 31.33L73.3703 31.29C73.2203 31.24 73.1103 31.12 73.0403 30.97C73.0103 30.89 72.9803 30.82 72.9603 30.76L72.9203 30.65C72.8803 30.53 72.8303 30.46 72.7903 30.42C72.7403 30.38 72.7003 30.36 72.5803 30.33C72.2503 30.28 71.9303 30.31 71.6403 30.43L71.4403 30.53C71.3603 30.57 71.2603 30.58 71.1703 30.56C71.0003 30.55 70.7703 30.35 70.7303 30.33C70.5803 30.22 70.4503 30.15 70.3403 30.12C70.2203 30.08 70.1503 30.12 69.8703 30.17C69.6403 30.21 69.4203 30.2 69.2103 30.19C69.0003 30.18 68.8103 30.15 68.6303 30.15C68.4503 30.15 68.3603 30.19 68.1403 30.28C67.8903 30.38 67.6503 30.47 67.4403 30.59C67.2303 30.71 67.0303 30.91 66.8003 31.04L66.8403 31.07Z" fill="#154D82"/>
<path d="M51.2102 31.71C51.2102 31.71 51.2102 31.71 51.1402 31.69C51.0302 31.65 50.9302 31.56 50.9002 31.54C50.8702 31.5 50.9002 31.59 51.1402 31.62C51.1502 31.62 51.2002 31.62 51.2102 31.62C51.4502 31.59 51.6302 31.39 51.7202 31.19C51.7802 31.05 51.9002 30.91 52.0602 30.83C52.2202 30.75 52.3802 30.74 52.5002 30.71C52.7602 30.66 52.8402 30.59 52.9202 30.41C52.9602 30.34 52.9802 30.16 53.1602 29.98C53.3402 29.79 53.6302 29.77 53.8002 29.8C54.1602 29.86 54.3802 29.97 54.5902 30.01C54.6902 30.03 54.7602 30.02 54.8102 30.01C54.8302 30.01 54.8502 29.99 54.8602 29.98C54.8602 29.98 55.0002 29.88 55.0802 29.85C55.5102 29.64 56.0102 29.83 56.2502 30.03C56.3202 30.08 56.2702 30.05 56.2902 30.06C56.3402 29.94 56.4402 29.75 56.5502 29.63C56.6602 29.49 56.7902 29.38 56.9602 29.26C57.1502 29.14 57.4402 29.06 57.6902 29.12C58.0302 29.21 58.1602 29.38 58.2702 29.45C58.3202 29.49 58.2902 29.46 58.3002 29.47C58.3002 29.47 58.2802 29.48 58.3202 29.46C58.3702 29.44 58.4202 29.41 58.4702 29.39C58.5802 29.35 58.7102 29.31 58.8502 29.31C59.1602 29.3 59.4002 29.45 59.4902 29.48C59.5902 29.52 59.6102 29.52 59.7102 29.51C59.7502 29.51 59.8002 29.49 59.8702 29.47C59.9602 29.44 60.0502 29.41 60.1502 29.39C60.5302 29.3 61.0502 29.36 61.4002 29.67C61.4702 29.73 61.5402 29.81 61.6002 29.88C61.6602 29.97 61.6702 29.99 61.7102 30.05C61.7402 30.1 61.7602 30.15 61.7902 30.2L61.8402 30.34C61.8602 30.41 61.9202 30.5 62.0202 30.57C62.0202 30.57 62.0602 30.61 62.1602 30.66C62.2602 30.71 62.4302 30.76 62.6402 30.77C62.8502 30.79 63.0902 30.68 63.4102 30.65C63.7102 30.63 64.0002 30.65 64.2502 30.69C65.1102 30.83 65.3502 30.92 65.2702 30.89C65.1802 30.87 64.7402 30.8 64.2102 30.83C64.1702 30.83 64.0602 30.85 63.8702 30.87C63.6302 30.9 63.3602 30.97 63.0702 31.13C62.7402 31.28 62.3402 31.33 62.0302 31.27C61.7202 31.21 61.5302 31.06 61.5302 31.06C61.4402 31 61.3702 30.92 61.3002 30.84C61.2702 30.79 61.2302 30.75 61.2002 30.7L61.1402 30.57C61.1402 30.57 61.0902 30.48 61.0602 30.43C61.0402 30.4 60.9702 30.32 60.9102 30.29C60.7602 30.19 60.5902 30.17 60.3602 30.24C60.3002 30.25 60.2502 30.28 60.1902 30.3C60.1002 30.33 60.0002 30.37 59.8902 30.39C59.6702 30.44 59.3702 30.41 59.1702 30.33C58.9602 30.24 58.9202 30.23 58.9002 30.24C58.8902 30.24 58.8602 30.24 58.8202 30.26C58.8002 30.26 58.7802 30.28 58.7602 30.29C58.7302 30.31 58.6302 30.36 58.5602 30.37C58.2802 30.51 57.9102 30.36 57.7102 30.2C57.5702 30.09 57.4602 30.02 57.4902 30.04C57.4902 30.04 57.5102 30.03 57.4702 30.05C57.4202 30.08 57.3402 30.15 57.2902 30.21C57.2302 30.29 57.2002 30.32 57.1402 30.46C57.0502 30.71 56.9702 31 56.8302 31.09C56.7602 31.12 56.6902 31.21 56.5702 31.19C56.4802 31.19 56.4102 31.19 56.3102 31.18C56.1302 31.13 55.8802 30.83 55.7402 30.73C55.5702 30.6 55.5002 30.59 55.4302 30.61C55.3902 30.63 55.4202 30.61 55.3102 30.67C55.2102 30.73 55.1102 30.77 54.9902 30.79C54.7702 30.83 54.5702 30.79 54.4202 30.74C54.1102 30.65 53.8702 30.5 53.7002 30.46C53.5402 30.46 53.6502 30.34 53.4302 30.69C53.3402 30.83 53.2102 30.97 53.0402 31.06C52.8702 31.15 52.6902 31.15 52.5502 31.15C52.2702 31.15 52.1202 31.15 51.9802 31.34C51.8002 31.58 51.5202 31.77 51.2202 31.73L51.2102 31.71Z" fill="#154D82"/>
<path d="M44.9101 34.57C44.9101 34.57 44.9101 34.57 44.9101 34.63C44.8601 34.84 44.9301 35.14 44.8501 34.65C44.8501 34.64 44.84 34.58 44.83 34.58C44.78 34.32 44.7401 34.06 44.6701 33.82C44.6301 33.68 44.6001 33.66 44.5101 33.62C44.4201 33.58 44.2801 33.55 44.1401 33.49C44.0601 33.45 43.9701 33.4 43.8901 33.32C43.8201 33.26 43.7401 33.09 43.7501 33.09C43.7501 33.09 43.67 33.1 43.62 33.12C43.37 33.19 43.08 33.31 42.77 33.39C42.6 33.43 42.4401 33.48 42.1701 33.43C42.0401 33.4 41.86 33.31 41.77 33.14C41.72 33.07 41.7101 33 41.6901 32.92V32.86C41.7701 32.85 41.7101 32.86 41.7301 32.86C41.7301 32.86 41.7401 32.86 41.7501 32.86C41.7201 32.86 41.69 32.9 41.68 32.9L41.65 32.88C41.65 32.88 41.5701 32.83 41.5001 32.8L41.27 32.69C41.17 32.64 41.03 32.52 40.96 32.4C40.77 32.16 40.85 31.79 40.96 31.59C41 31.5 41.0101 31.42 41.0001 31.4C41.0301 31.38 40.8401 31.23 40.5401 30.91C40.4001 30.75 40.28 30.45 40.3 30.19C40.31 29.95 40.38 29.72 40.55 29.5C40.9 29.11 41.2401 29.04 41.5401 28.92C41.7001 28.85 42.0301 28.81 42.2201 28.87C42.4401 28.91 42.61 28.99 42.77 29.06C42.93 29.14 43.0601 29.22 43.1901 29.29L43.37 29.39L43.4501 29.43C43.6601 29.46 44.65 29.13 45.33 29.56C45.5 29.65 45.6601 29.78 45.7801 29.91C45.8701 30.01 45.82 29.93 45.83 29.96C45.95 29.96 46.3301 29.72 46.7501 29.73C47.3901 29.75 47.6201 30.24 47.7601 30.48C47.7601 30.48 47.8001 30.57 47.8501 30.66C47.9201 30.75 47.9 30.8 48.11 30.77C48.29 30.74 48.55 30.57 48.83 30.47C49.1 30.37 49.4301 30.32 49.6901 30.41C50.1201 30.59 50.25 30.88 50.36 30.98C50.46 31.1 50.49 31.13 50.46 31.1C50.39 31.07 50.1301 30.61 49.6301 30.52C49.6601 30.52 49.5201 30.49 49.3101 30.55C49.1 30.6 48.84 30.76 48.59 30.96C48.44 31.06 48.3 31.18 48.08 31.23C47.86 31.3 47.57 31.18 47.46 31.05C47.23 30.81 47.1701 30.69 47.1601 30.69C47.0801 30.58 47.0001 30.5 46.9401 30.46C46.8701 30.44 46.8501 30.41 46.6301 30.46C46.5301 30.49 46.4201 30.54 46.2801 30.61C46.2001 30.64 46.1401 30.68 46.0101 30.71C45.8701 30.75 45.7101 30.76 45.5701 30.71C45.4401 30.68 45.2801 30.56 45.2301 30.5C45.1801 30.46 45.13 30.42 45.09 30.39C45 30.33 44.91 30.28 44.81 30.25C44.62 30.19 44.4001 30.19 44.1401 30.23L43.7001 30.31C43.6101 30.32 43.5201 30.33 43.3901 30.33C43.2701 30.33 43.0701 30.27 43.0001 30.23C42.6801 30.07 42.4501 29.92 42.2301 29.83C42.1201 29.78 42.0301 29.76 41.9701 29.76C41.9401 29.76 41.92 29.76 41.9 29.76C41.87 29.76 41.7801 29.8 41.7301 29.82C41.4801 29.9 41.2601 30.03 41.2501 30.08C41.2301 30.1 41.21 30.21 41.21 30.22C41.21 30.24 41.2101 30.27 41.2801 30.36C41.3501 30.44 41.46 30.54 41.59 30.7C41.72 30.85 41.86 31.13 41.84 31.4C41.84 31.64 41.6901 31.91 41.6701 31.96H41.6601C41.6601 31.96 41.7501 32.03 41.8901 32.12C42.0201 32.2 42.28 32.33 42.36 32.68C42.38 32.8 42.38 32.75 42.37 32.76C42.35 32.76 42.3101 32.78 42.2801 32.8C42.2801 32.8 42.28 32.8 42.27 32.8C42.29 32.78 42.3 32.76 42.31 32.74C42.32 32.68 42.31 32.73 42.33 32.72C42.38 32.74 42.5101 32.73 42.6401 32.72C42.9101 32.68 43.1901 32.59 43.5301 32.56C43.6301 32.56 43.7001 32.54 43.8501 32.57C43.9201 32.58 43.9801 32.64 44.0401 32.66C44.0801 32.72 44.11 32.79 44.15 32.85C44.19 33.02 44.2 33.02 44.31 33.11C44.4 33.17 44.5201 33.22 44.6601 33.3C44.7301 33.35 44.8001 33.41 44.8501 33.5C44.9001 33.6 44.9001 33.66 44.9101 33.74C44.9401 34.02 44.9301 34.28 44.9101 34.55V34.57Z" fill="#154D82"/>
<path d="M92.12 9.45997C92.12 9.45997 92.12 9.45997 92.12 9.39997C92.17 9.18997 92.12 8.88997 92.17 9.38997C92.17 9.39997 92.17 9.45997 92.18 9.45997C92.24 9.98997 92.28 10.51 92.32 11.04C92.54 14.06 92.62 17.09 92.62 20.11C92.62 21.62 92.6 23.13 92.56 24.64L92.47 26.91L92.42 27.91C92.42 27.91 92.27 29.36 92.19 30.38C92.13 31.24 92.14 31.5 92.14 31.41C92.14 31.32 92.12 30.88 92.08 30.34C92.07 30.17 91.86 27.78 91.86 27.78L91.8 26.64L91.72 24.41C91.68 22.92 91.66 21.44 91.67 19.95C91.67 16.98 91.76 14.01 91.98 11.03C92.02 10.5 92.06 9.97997 92.12 9.44997V9.45997Z" fill="#154D82"/>
</svg>
