<svg width="406" height="154" viewBox="0 0 406 154" fill="none" xmlns="http://www.w3.org/2000/svg">
<g clip-path="url(#clip0_14_965)">
<path d="M27.9889 39.641C26.6386 35.9382 25.4996 32.721 24.4708 29.8064H8.44168L4.97866 39.641H0L13.8061 2.11719H19.2717L33.188 39.641H27.9889ZM23.0654 25.9019C17.655 10.7328 16.7364 7.77235 16.3506 5.18765C15.974 7.78151 15.1564 10.7878 9.85629 25.9019H23.0654Z" fill="white"/>
<path d="M35.7784 26.0029C35.7784 17.9188 41.8961 11.842 50.5583 11.842C54.0764 11.842 57.1628 12.9511 59.5419 15.0683V19.6694C57.319 17.5064 54.5633 16.0215 50.99 16.0215C45.0928 16.0215 40.5458 20.3569 40.5458 26.012C40.5458 31.6672 45.0928 36.0575 50.99 36.0575C54.5633 36.0575 57.319 34.5268 59.5419 32.4096V36.9557C57.1628 39.1188 54.0764 40.182 50.5583 40.182C41.8961 40.182 35.7784 34.1052 35.7784 26.0212V26.0029Z" fill="white"/>
<path d="M89.9099 12.4193H93.97V39.6411H89.2026V33.2435C87.4665 37.423 83.3605 40.1635 77.8307 40.1635C69.389 40.1635 63.8684 33.9309 63.8684 25.9477C63.8684 17.9645 69.4993 11.8327 78.1063 11.8327C82.9196 11.8327 87.0348 14.3166 89.2026 18.3311V18.5969L89.9099 12.4102V12.4193ZM89.1475 26.0027C89.1475 20.4026 84.9221 16.0122 78.9697 16.0122C73.0174 16.0122 68.6817 20.1917 68.6817 26.0027C68.6817 31.8137 72.9623 36.0482 78.9697 36.0482C84.9772 36.0482 89.1475 31.6579 89.1475 26.0027ZM87.5768 1.31982L81.8357 9.13806H77.9961L82.4328 1.31982H87.5768Z" fill="white"/>
<path d="M137.703 12.4194H141.763V39.6411H136.996V33.2435C135.26 37.4231 131.154 40.1636 125.624 40.1636C117.182 40.1636 111.662 33.931 111.662 25.9478C111.662 17.9645 117.293 11.8328 125.9 11.8328C130.713 11.8328 134.828 14.3166 136.996 18.3312V18.597L137.703 12.4102V12.4194ZM136.941 26.0027C136.941 20.4026 132.715 16.0123 126.763 16.0123C120.811 16.0123 116.475 20.1918 116.475 26.0027C116.475 31.8137 120.756 36.0482 126.763 36.0482C132.771 36.0482 136.941 31.6579 136.941 26.0027Z" fill="white"/>
<path d="M153.181 16.9104C154.752 13.6842 157.673 11.6769 162.762 12.3093L162.707 16.3788C156.81 15.5906 153.392 18.0195 153.392 22.8314V39.6411H148.68V12.4193H152.63L153.172 16.9104H153.181Z" fill="white"/>
<path d="M171.957 16.9104C173.528 13.6842 176.449 11.6769 181.538 12.3093L181.482 16.3788C175.585 15.5906 172.168 18.0195 172.168 22.8314V39.6411H167.456V12.4193H171.406L171.948 16.9104H171.957Z" fill="white"/>
<path d="M185.653 5.44437C185.653 3.80373 186.948 2.48389 188.629 2.48389C190.31 2.48389 191.66 3.80373 191.66 5.44437C191.66 7.08501 190.31 8.34985 188.629 8.34985C186.948 8.34985 185.653 7.03001 185.653 5.44437ZM190.962 12.4194V39.6411H186.25V12.4194H190.962Z" fill="white"/>
<path d="M227.925 26.1127C227.925 34.1968 222.295 40.1727 213.743 40.1727C208.874 40.1727 204.759 37.7438 202.591 33.6743V39.6503H197.879V0H202.591V18.7619C204.327 14.6374 208.433 11.8878 213.963 11.8878C222.46 11.8878 227.925 18.1203 227.925 26.1036V26.1127ZM223.158 26.0577C223.158 20.1918 218.832 16.0123 212.815 16.0123C206.798 16.0123 202.637 20.4026 202.637 26.0577C202.637 31.7129 206.863 36.0482 212.815 36.0482C218.767 36.0482 223.158 31.8687 223.158 26.0577Z" fill="white"/>
<path d="M257.862 12.4194H261.922V39.6411H257.154V33.2435C255.418 37.4231 251.312 40.1636 245.783 40.1636C237.341 40.1636 231.82 33.931 231.82 25.9478C231.82 17.9645 237.451 11.8328 246.058 11.8328C250.871 11.8328 254.987 14.3166 257.154 18.3312V18.597L257.862 12.4102V12.4194ZM257.099 26.0027C257.099 20.4026 252.874 16.0123 246.922 16.0123C240.969 16.0123 236.634 20.1918 236.634 26.0027C236.634 31.8137 240.914 36.0482 246.922 36.0482C252.929 36.0482 257.099 31.6579 257.099 26.0027Z" fill="white"/>
<path d="M271.438 35.04H276.472L272.733 45.2413H268.995L271.429 35.04H271.438Z" fill="white"/>
<path d="M6.7699 55.6809V95.322H2.05762V55.6809H6.7699Z" fill="white"/>
<path d="M38.2127 68.1003H42.2728V95.322H37.5054V88.9244C35.7693 93.104 31.6633 95.8445 26.1335 95.8445C17.6918 95.8445 12.1711 89.6119 12.1711 81.6287C12.1711 73.6454 17.802 67.5137 26.409 67.5137C31.2223 67.5137 35.3376 69.9975 37.5054 74.0121V74.2779L38.2127 68.0911V68.1003ZM37.4503 81.6837C37.4503 76.0835 33.2248 71.6932 27.2725 71.6932C21.3201 71.6932 16.9845 75.8727 16.9845 81.6837C16.9845 87.4946 21.265 91.7291 27.2725 91.7291C33.2799 91.7291 37.4503 87.3388 37.4503 81.6837Z" fill="white"/>
<path d="M86.6582 68.1003L75.4516 95.3221H70.5831L59.0551 68.1003H64.1991C70.9689 84.745 72.1539 88.0263 73.0817 91.4634C73.9451 87.7605 75.0842 84.5434 81.6336 68.1003H86.6674H86.6582Z" fill="white"/>
<path d="M90.553 61.1253C90.553 59.4846 91.8482 58.1648 93.5292 58.1648C95.2101 58.1648 96.5604 59.4846 96.5604 61.1253C96.5604 62.7659 95.2101 64.0308 93.5292 64.0308C91.8482 64.0308 90.553 62.7109 90.553 61.1253ZM95.8623 68.1003V95.322H91.1501V68.1003H95.8623Z" fill="white"/>
<path d="M100.887 87.183L105.544 87.0272C105.976 90.4093 109.062 92.1508 113.067 92.1508C116.751 92.1508 119.13 90.721 119.13 88.1913C119.13 81.7937 102.237 84.965 102.237 75.2403C102.237 70.5384 106.674 67.5779 112.36 67.5779C118.046 67.5779 122.538 70.905 122.859 75.5611L118.312 75.7169C117.936 72.9672 115.657 71.1708 112.305 71.1708C109.163 71.1708 106.839 72.6464 106.839 74.9745C106.839 81.1613 123.888 77.825 123.888 87.9713C123.888 93.049 119.451 95.8445 112.902 95.8445C106.352 95.8445 101.374 93.1498 100.887 87.1739V87.183Z" fill="white"/>
<path d="M141.653 68.1002V71.7481H135.756V95.322H130.989V71.7481H126.873V68.1002H130.989V60.282H135.756V68.1002H141.653Z" fill="white"/>
<path d="M169.311 68.1003H173.371V95.322H168.604V88.9244C166.868 93.104 162.762 95.8445 157.232 95.8445C148.79 95.8445 143.27 89.6119 143.27 81.6287C143.27 73.6454 148.901 67.5137 157.508 67.5137C162.321 67.5137 166.436 69.9975 168.604 74.0121V74.2779L169.311 68.0911V68.1003ZM168.549 81.6837C168.549 76.0835 164.323 71.6932 158.371 71.6932C152.419 71.6932 148.083 75.8727 148.083 81.6837C148.083 87.4946 152.364 91.7291 158.371 91.7291C164.379 91.7291 168.549 87.3388 168.549 81.6837Z" fill="white"/>
<path d="M219.484 83.1135H195.775C196.097 88.4478 200.322 91.9949 205.733 91.9949C210.335 91.9949 213.256 89.511 214.505 86.9172L218.675 87.3938C217.215 91.9949 212.291 95.8536 205.687 95.8536C197.3 95.8536 191.072 90.2534 191.072 81.6928C191.072 73.7096 197.025 67.532 205.255 67.532C213.485 67.532 219.658 73.5079 219.493 83.1226L219.484 83.1135ZM195.775 79.5755H214.56C214.395 74.9286 210.665 71.3265 205.246 71.3265C199.826 71.3265 196.152 74.8186 195.775 79.5755Z" fill="white"/>
<path d="M223.002 87.183L227.659 87.0272C228.091 90.4093 231.177 92.1508 235.182 92.1508C238.866 92.1508 241.245 90.721 241.245 88.1913C241.245 81.7937 224.352 84.965 224.352 75.2403C224.352 70.5384 228.789 67.5779 234.475 67.5779C240.161 67.5779 244.653 70.905 244.974 75.5611L240.427 75.7169C240.051 72.9672 237.773 71.1708 234.42 71.1708C231.278 71.1708 228.954 72.6464 228.954 74.9745C228.954 81.1613 246.003 77.825 246.003 87.9713C246.003 93.049 241.566 95.8445 235.017 95.8445C228.467 95.8445 223.489 93.1498 223.002 87.1739V87.183Z" fill="white"/>
<path d="M306.463 78.1914V95.3127H300.291V79.7221C300.291 74.7544 297.691 72.5363 294.228 72.5363C290.765 72.5363 287.945 74.8643 287.945 79.7221V95.3127H281.772V79.7221C281.772 74.7544 279.118 72.5363 275.765 72.5363C272.136 72.5363 269.436 74.8643 269.436 79.7221V95.3127H263.208V67.8802H268.352L269.27 72.0047C270.896 69.2 273.652 67.3027 277.822 67.3027C281.607 67.3027 284.748 69.0442 286.429 72.0597C288.267 69.255 291.298 67.3027 295.845 67.3027C302.174 67.3027 306.454 71.4822 306.454 78.1914H306.463Z" fill="white"/>
<path d="M339.808 83.59H317.238C317.615 87.8703 321.243 90.8308 325.9 90.8308C329.905 90.8308 332.505 88.8235 333.699 86.4405L339.165 87.0179C337.649 91.9306 332.45 95.8443 325.845 95.8443C317.293 95.8443 311.01 90.1892 311.01 81.6285C311.01 73.0679 317.018 67.3027 325.404 67.3027C333.791 67.3027 340.074 73.1137 339.808 83.5808V83.59ZM317.238 78.9888H333.424C333.258 75.1301 330.016 72.2247 325.414 72.2247C320.812 72.2247 317.569 75.0751 317.238 78.9888Z" fill="white"/>
<path d="M344.244 60.9144C344.244 58.9072 345.87 57.3215 347.928 57.3215C349.985 57.3215 351.556 58.9072 351.556 60.9144C351.556 62.9217 349.93 64.4523 347.928 64.4523C345.925 64.4523 344.244 62.8667 344.244 60.9144ZM350.959 67.8894V107.476H344.731V67.8894H350.959Z" fill="white"/>
<path d="M355.883 81.5735C355.883 73.3795 362.267 67.3027 370.929 67.3027C379.591 67.3027 386.03 73.3795 386.03 81.5735C386.03 89.7676 379.646 95.8443 370.929 95.8443C362.212 95.8443 355.883 89.8226 355.883 81.5735ZM380.023 81.5735C380.023 76.4958 376.128 72.7471 370.929 72.7471C365.73 72.7471 361.945 76.4958 361.945 81.5735C361.945 86.6513 365.785 90.4 370.929 90.4C376.073 90.4 380.023 86.5963 380.023 81.5735Z" fill="white"/>
<path d="M396.906 72.014C398.422 69.1085 401.187 67.2021 406 67.8437L405.945 73.0772C400.534 72.3898 397.338 74.2413 397.117 78.4666L397.173 95.3221H390.945V67.8895H396.033L396.897 72.014H396.906Z" fill="white"/>
<path d="M166.445 75.1486C163.772 75.7627 157.802 76.7067 148.552 78.0632C147.44 78.2282 142.572 78.9431 133.303 80.2263C124.568 81.4361 119.69 82.1511 118.588 82.3069C116.953 82.5452 109.384 83.7275 95.8071 85.8631C82.1755 87.9345 75.1392 89.0344 74.0369 89.1902C66.9915 90.2168 62.5456 90.4367 59.7072 89.9051L55.0592 88.4661C58.8345 87.6962 62.5548 86.4864 66.7435 84.8549C77.0498 83.2784 91.747 81.0512 110.771 78.0449C117.274 77.0183 134.552 73.6087 140.532 72.738C154.127 70.7491 165.095 69.5851 173.362 69.1726L173.509 70.1717C173.573 70.6024 175.254 70.6483 178.561 70.3825C176.577 72.2797 172.379 73.9112 166.455 75.1486H166.445Z" fill="#EA3237"/>
<path d="M88.6514 131.865C88.2932 131.911 87.4389 132.754 86.0978 134.386L83.5442 137.502C83.7371 137.85 84.0494 138.024 84.4168 137.978C84.5638 137.96 84.6465 138.024 84.6556 138.098C84.7108 138.538 84.3341 139.097 83.6268 139.839C83.4982 139.931 81.9734 141.883 79.0707 145.696C76.6732 148.858 75.2403 150.361 74.7994 150.343C74.4319 150.315 73.8349 150.838 73.1735 152.02C72.5121 153.202 71.9334 153.862 71.4374 154C69.5267 153.432 69.2879 153.908 68.5347 153.193C67.6161 152.35 67.0374 151.25 66.8537 149.802C66.6241 147.996 67.065 145.073 68.1764 141.04C69.2971 137.007 69.7748 134.386 69.637 133.295C69.591 132.937 69.4716 132.589 69.3614 132.305C69.8758 131.728 69.986 130.243 69.6829 127.786C69.49 126.265 69.095 125.513 68.5163 125.587C68.4428 125.587 68.057 126.017 67.7631 126.054C67.4048 126.1 67.065 125.77 66.6792 125.082C66.3577 122.553 67.4324 121.105 69.8299 120.802C70.1146 120.766 70.5831 121.004 71.1526 121.444C72.0345 121.994 72.4386 122.314 72.5213 122.369C72.6315 122.654 73.0908 123.909 74.0278 126.146C74.6616 127.676 75.0474 128.95 75.1852 130.041C75.3964 131.709 75.3229 134.065 74.8912 137.053C74.533 139.445 74.1196 140.902 73.8716 140.627C73.9818 141.498 73.0908 143.744 73.2929 144.816C74.9463 143.359 77.2703 140.132 80.173 135.137L86.3183 124.313C86.6949 124.404 87.2828 123.818 88.2289 122.534C89.1567 121.169 89.7445 120.509 89.9558 120.481C90.8193 120.371 93.1065 119.207 93.8965 119.107C94.4017 119.042 95.2743 119.519 96.3583 120.555C97.5065 121.517 98.0944 122.03 98.1587 122.021C98.4434 121.985 98.5996 122.04 98.6271 122.186C98.6914 122.69 97.5249 123.937 96.9553 124.083C96.4685 124.294 95.5867 124.918 94.4017 126.017C91.9583 128.235 90.2957 130.279 89.2852 132.167C89.0005 132.204 88.9546 131.847 88.6606 131.883L88.6514 131.865Z" fill="white"/>
<path d="M105.452 132.406C104.736 134.917 104.148 136.686 103.707 137.841L102.412 141.021C101.815 142.708 101.53 143.918 101.622 144.642C101.677 145.082 101.851 145.348 102.09 145.458C103.238 145.238 104.809 144.239 106.701 142.314C108.667 140.371 110.008 139.326 110.651 139.179C111.129 139.482 111.386 139.812 111.45 140.325C111.551 141.122 111.212 141.901 110.403 142.515C109.558 143.432 108.915 144.101 108.529 144.587C107.675 145.43 106.536 146.237 105.14 146.924C105.076 147.007 103.826 147.602 101.392 148.711C101.181 148.812 100.786 149.151 100.198 149.738C99.6192 150.398 99.2885 150.728 99.0773 150.755C98.719 150.801 97.8555 150.398 97.4881 150.444C97.0472 150.499 96.5696 150.123 96.0919 149.298C95.6418 148.629 95.4121 147.987 95.3387 147.41C95.0723 145.311 96.1103 141.287 98.4434 135.192C100.933 128.639 102.191 124.001 102.265 121.123C102.761 120.985 103.045 120.298 103.128 119.18C103.192 117.998 103.78 117.338 104.938 117.2C105.663 117.108 106.463 117.594 107.271 118.74C108.134 119.803 108.64 120.839 108.768 121.856C108.833 122.36 108.741 122.819 108.557 123.13L109.347 123.543C107.859 126.375 106.104 128.795 105.461 132.406H105.452ZM110.807 108.309C110.55 108.566 110.192 108.685 109.687 108.749C108.594 108.887 107.445 108.52 106.095 107.732C104.745 106.871 104.038 106.009 103.937 105.212C103.872 104.707 104.322 103.553 104.258 103.039C104.331 103.039 104.524 102.856 104.919 102.517C105.186 102.269 105.461 102.086 105.673 102.059C106.178 101.994 106.885 102.352 107.868 103.177L109.852 104.909C109.577 105.606 109.402 105.991 109.42 106.137C109.466 106.504 109.852 106.678 110.587 106.651L110.798 108.309H110.807Z" fill="white"/>
<path d="M134.819 142.387C135.591 142.075 135.995 141.801 136.041 141.507C136.197 141.626 136.766 141.489 137.758 141.141C138.08 141.91 138.649 142.937 139.485 144.303L138.163 146.667C137.51 147.923 137.005 148.574 136.785 148.601C136.5 148.638 135.875 148.354 135.581 148.391C135.287 148.427 134.442 148.675 134.084 148.721C133.129 148.766 132.173 148.152 131.328 146.713C130.667 145.549 130.235 144.431 130.088 143.276C129.84 141.324 129.932 139.106 130.41 136.475L131.172 131.975C130.961 132.003 130.814 132.021 130.603 132.122L129.923 132.571L123.52 140.719C120.737 143.78 117.936 145.458 114.969 145.824C113.958 145.953 112.948 145.568 111.946 144.587C111.009 143.606 110.44 142.57 110.302 141.489C110.045 139.463 110.973 135.751 113.03 130.426C113.885 129.665 114.564 128.547 114.969 127.099C116.53 124.927 117.485 123.112 117.807 121.609C120.884 118.502 122.574 116.751 122.905 116.494C124.972 114.762 127.13 113.763 129.307 113.561C130.988 113.433 132.026 113.516 132.587 113.882C133.322 114.45 133.726 114.771 133.726 114.771C134.406 114.909 134.846 114.854 135.012 114.469C135.067 114.313 135.719 111.884 136.886 107.109C137.878 103.314 139.026 101.334 140.266 101.179C142.002 100.959 143.031 100.904 143.27 101.096C143.518 101.289 143.757 101.994 143.931 103.36C144.014 104.011 143.389 106.66 142.057 111.307C140.891 115.486 140 118.318 139.513 119.776C139.237 120.472 138.769 121.48 138.282 122.864C138.199 123.983 137.979 125.77 137.611 128.089C137.216 129.61 137.023 130.444 137.033 130.509C135.416 134.606 134.736 138.583 134.846 142.387H134.819ZM130.933 119.079C130.061 119.189 129.473 119.189 129.105 119.162C128.903 119.327 128.683 119.354 128.462 119.317C128.086 119.217 127.856 119.171 127.783 119.18C127.13 119.262 125.881 120.445 124.026 122.663C122.244 124.863 121.252 126.393 121.132 127.209C120.122 127.337 118.211 131.471 115.492 139.665C115.52 139.885 115.602 139.949 115.814 139.922C116.172 139.876 116.861 139.5 117.733 138.794C119.139 137.667 121.968 134.45 126.083 129.161C130.401 123.625 132.624 120.261 132.77 119.134C132.238 118.987 131.65 118.978 130.924 119.07L130.933 119.079Z" fill="white"/>
<path d="M175.42 120.921C175.245 121.306 173.886 122.8 171.341 125.394C169.192 127.576 168.283 129.152 168.494 130.234C168.76 131.746 168.779 133.066 168.531 134.047C168.053 135.504 167.75 136.64 167.713 137.447C166.997 138.199 165.959 139.289 164.425 140.582C162.027 140.884 160.723 139.28 160.658 135.77L153.714 142.58C150.334 145.577 147.743 147.217 145.86 147.456C143.545 147.749 141.24 146.42 140.946 144.11C140.753 142.589 142.039 139.94 144.749 136.292C146.963 133.442 149.02 131.059 151.004 129.262C150.876 128.831 151.124 128.437 151.739 128.071L153.181 127.227C155.505 125.248 156.911 124.12 157.526 123.744C158.693 123.084 160.456 122.425 162.744 121.911C163.534 121.737 164.305 120.252 165.068 117.585C165.784 115.074 166.078 113.341 165.949 112.333C165.775 110.958 165.334 110.354 164.535 110.454C163.589 110.573 160.815 112.544 156.066 116.293C155.551 117.457 154.412 118.923 152.722 120.747C150.912 122.663 149.507 123.79 148.515 124.139C147.578 124.331 145.98 122.69 145.86 121.755C145.778 121.105 147.027 119.336 149.617 116.504C151.748 114.185 153.457 112.498 154.734 111.536C155.331 111.023 156.901 110.014 159.51 108.585C162.128 107.155 163.717 106.366 164.223 106.302C165.169 106.183 166.317 106.55 167.833 107.466C169.339 108.374 170.111 109.235 170.23 110.17C170.331 110.968 169.89 115.065 168.981 122.443C172.334 118.713 174.823 116.788 176.339 116.595C176.559 116.568 176.779 116.614 176.936 116.669C176.697 117.658 176.136 119.052 175.411 120.903L175.42 120.921ZM153.65 136.86C153.714 136.778 153.833 136.549 153.879 136.32C154.651 135.412 155.735 135.284 156.001 135.027L160.484 130.279C160.649 129.895 161.173 129.317 162.046 128.694L161.899 127.539C161.779 127.181 161.559 127.136 161.053 127.273C160.41 127.429 159.657 127.823 158.619 128.382C157.269 128.776 154.881 130.839 151.464 134.642C148.028 138.373 146.421 140.783 146.705 141.846C148.331 141.278 150.692 139.583 153.659 136.86H153.65Z" fill="white"/>
</g>
<defs>
<clipPath id="clip0_14_965">
<rect width="406" height="154" fill="white"/>
</clipPath>
</defs>
</svg>
